<!--
add the following library to support older browsers:
https://github.com/jonathantneal/svg4everybody
-->
<svg xmlns="http://www.w3.org/2000/svg">

    <symbol id="logo" viewBox="0 0 150.26 100.37">
        <g id="Layer_2" data-name="Layer 2">
            <g id="Layer_1-2" data-name="Layer 1">
                <path style="fill: #fff;" d="M150.26 25.58l-5 3.61C128.65 41 105.84 54.78 89.43 55c6.3-17.8-4.18-52.86-41.1-54.93C25.14-1.24.41 17.05 0 47.38-.7 99.67 75.92 120 145.27 77.22l5-3.2z"/>
                <path d="M16.06 54.94A3.87 3.87 0 0 0 18.65 56a1.78 1.78 0 0 0 2-1.71c0-2.49-4.95-1.85-4.95-4.92a2.85 2.85 0 0 1 3.09-2.65 3.85 3.85 0 0 1 2.65 1l-.48.81a3.38 3.38 0 0 0-2.17-.84 1.89 1.89 0 0 0-2.09 1.7c0 2.35 4.95 1.67 4.95 4.92a2.73 2.73 0 0 1-3 2.67 4.37 4.37 0 0 1-3.14-1.26zM40.64 46.73A5 5 0 0 1 44.21 48l-.52.72a4.67 4.67 0 0 0-3-1.1 4 4 0 0 0-4 4.13 4.08 4.08 0 0 0 4 4.28 4.64 4.64 0 0 0 3.21-1.32l.56.69a5.29 5.29 0 0 1-3.79 1.53 5 5 0 0 1-5-5.17 4.91 4.91 0 0 1 4.97-5.03zM47.19 46.9h1v9.87h-1zM51.09 46.9h5.58v.87h-4.61v3.6h3.76v.87h-3.76v3.66h4.86v.87h-5.83zM62.43 47.77h-3.57v-.87H67v.87h-3.6v9h-1zM72.42 52.53l-3.34-5.63h1.11l2.1 3.58c.3.51.61 1.18.61 1.18s.3-.66.61-1.18l2.1-3.58h1.1l-3.31 5.63v4.24h-1zM28.76 46.75a5 5 0 0 1 5 5 5 5 0 1 1-10.09 0 5 5 0 0 1 5.09-5zm0 9.31a4.12 4.12 0 0 0 4-4.27 4 4 0 1 0-8.06 0 4.11 4.11 0 0 0 4.06 4.27zM29 27.81a5 5 0 0 1 5 5 5 5 0 1 1-10.09 0 5 5 0 0 1 5.09-5zm0 9.31a4.12 4.12 0 0 0 4-4.27 4 4 0 1 0-8.06 0A4.11 4.11 0 0 0 29 37.12zM38.25 33.61L34.91 28H36l2.1 3.58c.3.51.61 1.18.61 1.18s.3-.66.61-1.18L41.46 28h1.1l-3.33 5.63v4.24h-1zM48.71 34.7h-4l-1.13 3.15h-1L46.2 28h1l3.64 9.88h-1zm-2-5.7s-.21.81-.38 1.28L45 33.86h3.41l-1.3-3.58c-.17-.46-.38-1.28-.38-1.28zM53.31 28h1v9h4.59v.87h-5.59zM18.53 66.92h-3v-1.45h7.78v1.45h-3v7.81h-1.78zM25.7 65.47h5.56v1.45h-3.87v2.42h3.12v1.45h-3.12v2.49h4.08v1.45H25.7zM42.78 72.35h-3.26l-.78 2.37H37l3.27-9.25H42l3.27 9.25h-1.71zm-1.63-5.28s-.21.91-.39 1.43l-.83 2.5h2.43l-.82-2.48c-.17-.52-.37-1.43-.37-1.43zM98.41 65.32a5.07 5.07 0 0 1 3.45 1.17l-.86 1.25a4 4 0 0 0-2.47-.89A3 3 0 0 0 95.36 70a3.1 3.1 0 0 0 3.11 3.31 3.5 3.5 0 0 0 2.33-1V71.3h-1.43v-1.45h2.94v4.87h-1.44v-.44-.39a3.94 3.94 0 0 1-2.69 1 4.56 4.56 0 0 1-4.55-4.8 4.67 4.67 0 0 1 4.78-4.77zM104.63 65.47h1.69v9.25h-1.69zM47.4 65.47H51a2.84 2.84 0 0 1 3 3 2.87 2.87 0 0 1-3 3h-1.9v3.19h-1.7zm3.27 4.6a1.46 1.46 0 0 0 1.56-1.59 1.44 1.44 0 0 0-1.53-1.56h-1.61v3.15zM64.84 65.47h3a4.33 4.33 0 0 1 1.87.26 2.61 2.61 0 0 1 1.52 2.53 2.66 2.66 0 0 1-1.57 2.53 2.27 2.27 0 0 1 .31.46l1.91 3.45H70l-1.84-3.45h-1.63v3.45h-1.69zM68 69.81a1.34 1.34 0 0 0 1.46-1.46c0-.89-.38-1.43-1.7-1.43h-1.23v2.89zM79.35 72.35h-3.26l-.78 2.37h-1.74l3.27-9.25h1.76l3.27 9.25h-1.74zm-1.63-5.28s-.21.91-.39 1.43L76.5 71h2.43l-.82-2.48c-.17-.52-.37-1.43-.37-1.43zM83.91 65.47h1.69l3.52 5.34a14 14 0 0 1 .77 1.43s-.09-.89-.09-1.43v-5.34h1.67v9.25h-1.65l-3.52-5.33a14 14 0 0 1-.77-1.39s.09.89.09 1.43v5.33h-1.71zM60.3 72.35H57l-.78 2.37h-1.7l3.27-9.25h1.77l3.27 9.25h-1.74zm-1.63-5.28s-.21.91-.39 1.43l-.83 2.5h2.43l-.82-2.48c-.17-.52-.37-1.43-.37-1.43zM56.5 63.1h4.34v.68H56.5z"/>
                <path d="M28.44 41.7a10.29 10.29 0 0 1-7-4.77l-1.84-3.39.26-.09a2.72 2.72 0 0 0 1.87-2.67 2.63 2.63 0 0 0-1.49-2.54 4.41 4.41 0 0 0-1.83-.24h-2.93v9.87h1v-4.18h2.2l2 3.66a9.08 9.08 0 0 0 7.79 4.46h.59a3.17 3.17 0 0 0-.62-.11zm-12-8.88v-4h2a2.85 2.85 0 0 1 1.41.24 1.83 1.83 0 0 1 .9 1.73 1.85 1.85 0 0 1-2 2z"/>
            </g>
        </g>
    </symbol>

    <symbol id="logo-inverse" viewBox="0 0 150.26 100.37">
        <g id="Layer_2" data-name="Layer 2">
            <g id="Layer_1-2" data-name="Layer 1">
                <path style="fill: #000;" d="M150.26 25.58l-5 3.61C128.65 41 105.84 54.78 89.43 55c6.3-17.8-4.18-52.86-41.1-54.93C25.14-1.24.41 17.05 0 47.38-.7 99.67 75.92 120 145.27 77.22l5-3.2z"/>
                <path style="fill: #fff;" d="M16.06 54.94A3.87 3.87 0 0 0 18.65 56a1.78 1.78 0 0 0 2-1.71c0-2.49-4.95-1.85-4.95-4.92a2.85 2.85 0 0 1 3.09-2.65 3.85 3.85 0 0 1 2.65 1l-.48.81a3.38 3.38 0 0 0-2.17-.84 1.89 1.89 0 0 0-2.09 1.7c0 2.35 4.95 1.67 4.95 4.92a2.73 2.73 0 0 1-3 2.67 4.37 4.37 0 0 1-3.14-1.26zM40.64 46.73A5 5 0 0 1 44.21 48l-.52.72a4.67 4.67 0 0 0-3-1.1 4 4 0 0 0-4 4.13 4.08 4.08 0 0 0 4 4.28 4.64 4.64 0 0 0 3.21-1.32l.56.69a5.29 5.29 0 0 1-3.79 1.53 5 5 0 0 1-5-5.17 4.91 4.91 0 0 1 4.97-5.03zM47.19 46.9h1v9.87h-1zM51.09 46.9h5.58v.87h-4.61v3.6h3.76v.87h-3.76v3.66h4.86v.87h-5.83zM62.43 47.77h-3.57v-.87H67v.87h-3.6v9h-1zM72.42 52.53l-3.34-5.63h1.11l2.1 3.58c.3.51.61 1.18.61 1.18s.3-.66.61-1.18l2.1-3.58h1.1l-3.31 5.63v4.24h-1zM28.76 46.75a5 5 0 0 1 5 5 5 5 0 1 1-10.09 0 5 5 0 0 1 5.09-5zm0 9.31a4.12 4.12 0 0 0 4-4.27 4 4 0 1 0-8.06 0 4.11 4.11 0 0 0 4.06 4.27zM29 27.81a5 5 0 0 1 5 5 5 5 0 1 1-10.09 0 5 5 0 0 1 5.09-5zm0 9.31a4.12 4.12 0 0 0 4-4.27 4 4 0 1 0-8.06 0A4.11 4.11 0 0 0 29 37.12zM38.25 33.61L34.91 28H36l2.1 3.58c.3.51.61 1.18.61 1.18s.3-.66.61-1.18L41.46 28h1.1l-3.33 5.63v4.24h-1zM48.71 34.7h-4l-1.13 3.15h-1L46.2 28h1l3.64 9.88h-1zm-2-5.7s-.21.81-.38 1.28L45 33.86h3.41l-1.3-3.58c-.17-.46-.38-1.28-.38-1.28zM53.31 28h1v9h4.59v.87h-5.59zM18.53 66.92h-3v-1.45h7.78v1.45h-3v7.81h-1.78zM25.7 65.47h5.56v1.45h-3.87v2.42h3.12v1.45h-3.12v2.49h4.08v1.45H25.7zM42.78 72.35h-3.26l-.78 2.37H37l3.27-9.25H42l3.27 9.25h-1.71zm-1.63-5.28s-.21.91-.39 1.43l-.83 2.5h2.43l-.82-2.48c-.17-.52-.37-1.43-.37-1.43zM98.41 65.32a5.07 5.07 0 0 1 3.45 1.17l-.86 1.25a4 4 0 0 0-2.47-.89A3 3 0 0 0 95.36 70a3.1 3.1 0 0 0 3.11 3.31 3.5 3.5 0 0 0 2.33-1V71.3h-1.43v-1.45h2.94v4.87h-1.44v-.44-.39a3.94 3.94 0 0 1-2.69 1 4.56 4.56 0 0 1-4.55-4.8 4.67 4.67 0 0 1 4.78-4.77zM104.63 65.47h1.69v9.25h-1.69zM47.4 65.47H51a2.84 2.84 0 0 1 3 3 2.87 2.87 0 0 1-3 3h-1.9v3.19h-1.7zm3.27 4.6a1.46 1.46 0 0 0 1.56-1.59 1.44 1.44 0 0 0-1.53-1.56h-1.61v3.15zM64.84 65.47h3a4.33 4.33 0 0 1 1.87.26 2.61 2.61 0 0 1 1.52 2.53 2.66 2.66 0 0 1-1.57 2.53 2.27 2.27 0 0 1 .31.46l1.91 3.45H70l-1.84-3.45h-1.63v3.45h-1.69zM68 69.81a1.34 1.34 0 0 0 1.46-1.46c0-.89-.38-1.43-1.7-1.43h-1.23v2.89zM79.35 72.35h-3.26l-.78 2.37h-1.74l3.27-9.25h1.76l3.27 9.25h-1.74zm-1.63-5.28s-.21.91-.39 1.43L76.5 71h2.43l-.82-2.48c-.17-.52-.37-1.43-.37-1.43zM83.91 65.47h1.69l3.52 5.34a14 14 0 0 1 .77 1.43s-.09-.89-.09-1.43v-5.34h1.67v9.25h-1.65l-3.52-5.33a14 14 0 0 1-.77-1.39s.09.89.09 1.43v5.33h-1.71zM60.3 72.35H57l-.78 2.37h-1.7l3.27-9.25h1.77l3.27 9.25h-1.74zm-1.63-5.28s-.21.91-.39 1.43l-.83 2.5h2.43l-.82-2.48c-.17-.52-.37-1.43-.37-1.43zM56.5 63.1h4.34v.68H56.5z"/>
                <path style="fill: #fff;" d="M28.44 41.7a10.29 10.29 0 0 1-7-4.77l-1.84-3.39.26-.09a2.72 2.72 0 0 0 1.87-2.67 2.63 2.63 0 0 0-1.49-2.54 4.41 4.41 0 0 0-1.83-.24h-2.93v9.87h1v-4.18h2.2l2 3.66a9.08 9.08 0 0 0 7.79 4.46h.59a3.17 3.17 0 0 0-.62-.11zm-12-8.88v-4h2a2.85 2.85 0 0 1 1.41.24 1.83 1.83 0 0 1 .9 1.73 1.85 1.85 0 0 1-2 2z"/>
            </g>
        </g>
    </symbol>

    <symbol id="logo-tagline">
        <g>
            <g>
                <rect style="fill:#ea1c24;" x="55.89" width="1" height="20"/>
                <rect style="fill:#ed1c24;" x="130.89" width="1" height="20"/>
                <path style="fill:#fff;" d="M1.41,9.6H3.81v1.15H1.41v1.72H3.81v1.15H0V6.76H3.81V7.92H1.41Z"/>
                <path style="fill:#fff;" d="M7.24,13.62H5.61L7.77,10,5.85,6.76H7.47l1.1,2,1.13-2h1.6L9.37,10l2.13,3.62H9.9L8.57,11.24Z"/>
                <path style="fill:#fff;" d="M14.84,13.62H13.43V6.76h2.19c1.62,0,2.54.79,2.54,2.19a2.21,2.21,0,0,1-2.45,2.31h-.87Zm.61-3.51c.81,0,1.28-.39,1.28-1.08s-.48-1.1-1.25-1.1h-.64V10.1Z"/>
                <path style="fill:#fff;" d="M24,12.46v1.16h-3.7V6.76h1.41v5.69Z"/>
                <path style="fill:#fff;" d="M31.51,7.78a3.5,3.5,0,0,1,.87,2.45,3.54,3.54,0,1,1-3.48-3.6A3.5,3.5,0,0,1,31.51,7.78Zm-4.77,2.43a2.11,2.11,0,1,0,4.21,0,2.11,2.11,0,1,0-4.21,0Z"/>
                <path style="fill:#fff;" d="M35.93,13.62H34.52V6.76h2.12c1.7,0,2.61.75,2.61,2.16A2,2,0,0,1,37.63,11l1.89,2.63H37.81L35.93,10.9Zm.64-3.55c.8,0,1.25-.39,1.25-1.08a1,1,0,0,0-1.13-1.07h-.76v2.15Z"/>
                <path style="fill:#fff;" d="M43,9.6h2.41v1.15H43v1.72h2.41v1.15H41.57V6.76h3.81V7.92H43Z"/>
                <path style="fill:#fff;" d="M68,6.76H69.9a3.46,3.46,0,0,1,2.47.76,3.34,3.34,0,0,1,1.08,2.59,3.6,3.6,0,0,1-1.09,2.71,3.46,3.46,0,0,1-2.37.79H68Zm1.41,5.69h.27A2.28,2.28,0,0,0,71.25,12,2.35,2.35,0,0,0,72,10.16,2.05,2.05,0,0,0,69.88,7.9h-.51Z"/>
                <path style="fill:#fff;" d="M77.06,13.62H75.65V6.76h1.41Z"/>
                <path style="fill:#fff;" d="M80.55,11.61v.09a.85.85,0,0,0,.94.8.82.82,0,0,0,.9-.73.68.68,0,0,0-.28-.54,2.73,2.73,0,0,0-.83-.38c-1.5-.53-2-1.1-2-2.15a2.06,2.06,0,0,1,2.26-2.08,2.15,2.15,0,0,1,2.31,2.1H82.4a.81.81,0,0,0-.89-.85.75.75,0,0,0-.84.72.72.72,0,0,0,.42.65,4.88,4.88,0,0,0,.8.34,3.86,3.86,0,0,1,1.43.76,1.77,1.77,0,0,1,.54,1.33,2.11,2.11,0,0,1-2.36,2.09,2.06,2.06,0,0,1-2.31-2.14Z"/>
                <path style="fill:#fff;" d="M91.68,12.72a3.42,3.42,0,0,1-2.55,1,3.16,3.16,0,0,1-2.46-1,3.79,3.79,0,0,1-.92-2.52,3.47,3.47,0,0,1,6-2.49l-.91.93a2.26,2.26,0,0,0-1.6-.71,2.06,2.06,0,0,0-2,2.24,2.12,2.12,0,0,0,2.12,2.27,1.9,1.9,0,0,0,1.53-.7Z"/>
                <path style="fill:#fff;" d="M99.37,7.78a3.49,3.49,0,0,1,.87,2.45,3.54,3.54,0,1,1-3.48-3.6A3.5,3.5,0,0,1,99.37,7.78ZM94.6,10.21a2.11,2.11,0,1,0,4.21,0,2.11,2.11,0,1,0-4.21,0Z"/>
                <path style="fill:#fff;" d="M105.92,6.76h1.45l-2.16,6.86h-1.5l-2.08-6.86h1.45l1.39,4.59Z"/>
                <path style="fill:#fff;" d="M110.5,9.6h2.4v1.15h-2.4v1.72h2.4v1.15h-3.81V6.76h3.81V7.92h-2.4Z"/>
                <path style="fill:#fff;" d="M116.6,13.62h-1.41V6.76h2.12c1.7,0,2.61.75,2.61,2.16A2,2,0,0,1,118.3,11l1.89,2.63h-1.71L116.6,10.9Zm.64-3.55c.8,0,1.25-.39,1.25-1.08a1,1,0,0,0-1.13-1.07h-.76v2.15Z"/>
                <path style="fill:#fff;" d="M143.95,11.61v.09a.85.85,0,0,0,.94.8.82.82,0,0,0,.9-.73.68.68,0,0,0-.28-.54,2.72,2.72,0,0,0-.83-.38c-1.5-.53-2-1.1-2-2.15a2.06,2.06,0,0,1,2.26-2.08,2.15,2.15,0,0,1,2.31,2.1H145.8a.81.81,0,0,0-.89-.85.75.75,0,0,0-.84.72.72.72,0,0,0,.42.65,4.83,4.83,0,0,0,.8.34,3.85,3.85,0,0,1,1.43.76,1.77,1.77,0,0,1,.55,1.33,2.11,2.11,0,0,1-2.36,2.09,2.06,2.06,0,0,1-2.31-2.14Z"/>
                <path style="fill:#fff;" d="M150.78,13.62h-1.41V6.76h1.41v2.9h2.6V6.76h1.41v6.86h-1.41V10.81h-2.6Z"/>
                <path style="fill:#fff;" d="M158.53,12.44l-.41,1.18h-1.49L159,6.76h1.76l2.34,6.86h-1.54l-.39-1.18Zm1.32-4-1,2.84h1.9Z"/>
                <path style="fill:#fff;" d="M166.33,13.62h-1.41V6.76H167c1.7,0,2.61.75,2.61,2.16A2,2,0,0,1,168,11l1.89,2.63h-1.71l-1.88-2.72Zm.64-3.55c.8,0,1.25-.39,1.25-1.08a1,1,0,0,0-1.13-1.07h-.76v2.15Z"/>
                <path style="fill:#fff;" d="M173.31,9.6h2.41v1.15h-2.41v1.72h2.41v1.15H171.9V6.76h3.81V7.92h-2.41Z"/>
            </g>
        </g>
    </symbol>

    <symbol id="marsden-logo" viewBox="0 0 324.34 100.37">
        <defs>
            <clipPath id="clip-path-1" transform="translate(-.09)">
                <path style="fill: none;" d="M0 12.69h140.6v74.99H0z"/>
            </clipPath>
        </defs>
        <g id="Layer_2" data-name="Layer 2">
            <g id="Layer_1-2" data-name="Layer 1">
                <g id="Layer_2-2" data-name="Layer 2">
                    <g id="Layer_1-2-2" data-name="Layer 1-2">
                        <path style="fill: #fff;" d="M324.33 25.58l-5 3.61C302.72 41 279.91 54.78 263.5 55c6.3-17.8-4.18-52.86-41.1-54.93-23.19-1.31-47.92 17-48.33 47.31-.7 52.29 75.92 72.62 145.27 29.84l5-3.2z"/>
                        <path d="M190.13 54.94a3.87 3.87 0 0 0 2.59 1.06 1.78 1.78 0 0 0 2-1.55v-.16c0-2.49-4.95-1.85-4.95-4.92a2.85 2.85 0 0 1 3-2.65h.06a3.85 3.85 0 0 1 2.65 1l-.48.81a3.38 3.38 0 0 0-2.17-.84 1.89 1.89 0 0 0-2.09 1.67c0 2.35 4.95 1.67 4.95 4.92a2.73 2.73 0 0 1-2.78 2.72h-.22a4.37 4.37 0 0 1-3.14-1.26zM214.71 46.73a5 5 0 0 1 3.57 1.27l-.52.72a4.67 4.67 0 0 0-3-1.1 4 4 0 0 0-4 4v.13a4.08 4.08 0 0 0 3.87 4.25h.13a4.64 4.64 0 0 0 3.21-1.32l.56.69a5.29 5.29 0 0 1-3.79 1.53 5 5 0 0 1-5-5v-.17a4.91 4.91 0 0 1 4.79-5zM221.26 46.9h1v9.87h-1zM225.16 46.9h5.58v.87h-4.61v3.6h3.78v.87h-3.76v3.66h4.86v.87h-5.83zM236.5 47.77h-3.59v-.87h8.14v.87h-3.6v9h-1zM246.49 52.53l-3.34-5.63h1.11l2.1 3.58c.3.51.61 1.18.61 1.18s.3-.66.61-1.18l2.1-3.58h1.1l-3.31 5.63v4.24h-1zM202.83 46.75a5 5 0 0 1 5 5 5 5 0 1 1-5.09-5zm0 9.31a4.12 4.12 0 0 0 4-4.24 4.03 4.03 0 0 0-8.06 0 4.11 4.11 0 0 0 3.95 4.27zM203.07 27.81a5 5 0 1 1-.09 0zm0 9.31a4.12 4.12 0 0 0 4-4.24 4.03 4.03 0 0 0-8.06 0 4.11 4.11 0 0 0 3.9 4.24zM212.32 33.61L208.98 28h1.09l2.1 3.58c.3.51.61 1.18.61 1.18s.3-.66.61-1.18l2.14-3.58h1.1l-3.33 5.63v4.24h-1zM222.78 34.7h-4l-1.13 3.15h-1l3.62-9.85h1l3.64 9.88h-1zm-2-5.7s-.21.81-.38 1.28l-1.33 3.58h3.41l-1.3-3.58c-.17-.46-.38-1.28-.38-1.28zM227.38 28h1v9h4.59v.87h-5.59zM192.6 66.92h-3v-1.45h7.78v1.45h-3v7.81h-1.78zM199.77 65.47h5.56v1.45h-3.87v2.42h3.12v1.45h-3.12v2.49h4.08v1.45h-5.77zM216.85 72.35h-3.26l-.78 2.37h-1.74l3.27-9.25h1.73l3.27 9.25h-1.71zm-1.63-5.28s-.21.91-.39 1.43L214 71h2.43l-.82-2.48c-.17-.52-.37-1.43-.37-1.43zM272.48 65.32a5.07 5.07 0 0 1 3.43 1.17l-.86 1.25a4 4 0 0 0-2.47-.89 3 3 0 0 0-3.15 3.15 3.1 3.1 0 0 0 2.88 3.3h.23a3.5 3.5 0 0 0 2.33-1v-1h-1.43v-1.45h2.94v4.87h-1.47v-.83a3.94 3.94 0 0 1-2.69 1 4.56 4.56 0 0 1-4.56-4.56v-.24a4.67 4.67 0 0 1 4.57-4.77zM278.7 65.47h1.69v9.25h-1.69zM221.47 65.47h3.6a2.84 2.84 0 0 1 3 3 2.87 2.87 0 0 1-2.73 3h-2.17v3.19h-1.7zm3.27 4.6a1.46 1.46 0 0 0 1.56-1.59 1.44 1.44 0 0 0-1.31-1.56h-1.83v3.15zM238.91 65.47h3a4.33 4.33 0 0 1 1.87.26 2.61 2.61 0 0 1 1.52 2.53 2.66 2.66 0 0 1-1.57 2.53 2.27 2.27 0 0 1 .31.46l1.87 3.45h-1.88l-1.84-3.45h-1.63v3.45h-1.65zm3.16 4.34a1.34 1.34 0 0 0 1.46-1.46c0-.89-.38-1.43-1.7-1.43h-1.23v2.89zM253.42 72.35h-3.26l-.78 2.37h-1.74l3.27-9.25h1.76l3.24 9.25h-1.74zm-1.63-5.28s-.21.91-.39 1.43l-.83 2.5H253l-.82-2.48c-.17-.52-.37-1.43-.37-1.43zM257.98 65.47h1.69l3.52 5.34a14 14 0 0 1 .77 1.43s-.09-.89-.09-1.43v-5.34h1.67v9.25h-1.63l-3.52-5.33a14 14 0 0 1-.77-1.39s.09.89.09 1.43v5.33H258zM234.37 72.35h-3.3l-.78 2.37h-1.7l3.27-9.25h1.77l3.28 9.25h-1.74zm-1.63-5.28s-.21.91-.39 1.43l-.83 2.5h2.39l-.82-2.48c-.17-.52-.37-1.43-.37-1.43zM230.57 63.1h4.34v.68h-4.34z"/>
                        <path d="M202.51 41.7a10.29 10.29 0 0 1-7-4.77l-1.84-3.39.26-.09a2.72 2.72 0 0 0 1.87-2.67 2.63 2.63 0 0 0-1.49-2.54 4.41 4.41 0 0 0-1.83-.24h-2.93v9.87h1v-4.18h2.2l2 3.66a9.08 9.08 0 0 0 7.79 4.46h.59a3.17 3.17 0 0 0-.62-.11zm-12-8.88v-4h2a2.85 2.85 0 0 1 1.41.24 1.83 1.83 0 0 1 .9 1.73 1.85 1.85 0 0 1-1.69 2h-.31z"/>
                    </g>
                </g>
                <path style="fill: #ee7623;" d="M158.41 0h.75v100.37h-.75z"/>
                <path style="fill: #414042;" d="M0 52h140.51v35.68H0z"/>
                <path style="fill: #414042;" d="M9.46 52h121.68v30.59H9.46z"/>
                <path style="fill: #ee7623;" d="M0 12.75h140.51v39.34H0z"/>
                <g style="clip-path:url(#clip-path-1);">
                    <path style="fill: #fff;" d="M12.99 33.82c0-.23.12-.35.23-.35s.19.07.37.42l3.7 7.64 3.69-7.74c.1-.22.18-.32.3-.32s.2.14.24.42l1.23 8.37c.12.85.26 1.25.66 1.37a2.71 2.71 0 0 0 .84.14c.12 0 .22 0 .22.09s-.16.15-.35.15c-.34 0-2.21 0-2.75-.08-.31 0-.39-.07-.39-.15s.06-.11.15-.15.12-.2.07-.58l-.81-6h-.05l-3 6.15c-.31.64-.38.76-.5.76s-.25-.27-.47-.68c-.32-.62-1.4-2.7-1.56-3.08s-.94-2-1.41-3h-.05l-.7 5.39a5.21 5.21 0 0 0 0 .64c0 .26.17.38.41.43a2.62 2.62 0 0 0 .57.07c.11 0 .2 0 .2.09s-.12.15-.32.15h-2.77c-.13 0-.24 0-.24-.15s.08-.09.22-.09a1.78 1.78 0 0 0 .41 0c.38-.08.49-.61.56-1.07zM31.39 39.79c.07 0 .08 0 .07-.08l-1.22-3.35c0-.05 0-.12-.07-.12s-.07.07-.08.12l-1.24 3.34c0 .06 0 .09.06.09zm-2.76.68c-.07 0-.09 0-.12.11l-.73 1.94a2.65 2.65 0 0 0-.2.83c0 .24.12.42.54.42h.2c.16 0 .2 0 .2.11s-.08.14-.23.14h-3.04c-.18 0-.26 0-.26-.14s.05-.11.17-.11h.42c.62-.08.88-.54 1.15-1.22l3.4-8.55c.16-.39.24-.54.38-.54s.2.12.34.43c.32.75 2.49 6.27 3.36 8.33.51 1.22.91 1.41 1.19 1.48a2.83 2.83 0 0 0 .57.05c.11 0 .17 0 .17.11s-.12.14-.62.14h-2.56c-.24 0-.41 0-.41-.11s.06-.11.19-.12a.22.22 0 0 0 .12-.31l-1.08-2.87a.13.13 0 0 0-.14-.09zM56.37 39.18v2.74a2.92 2.92 0 0 0 .14 1c.18.26.71.54 1.78.54a4.35 4.35 0 0 0 3.11-1 4.28 4.28 0 0 0 1.14-3.38 4.61 4.61 0 0 0-1.3-3.39 5.37 5.37 0 0 0-3.85-1.35 3.64 3.64 0 0 0-.88.1.24.24 0 0 0-.16.27v2.71zm-1.69-1.49v-2.87s-.13-.68-.58-.77a2.73 2.73 0 0 0-.53 0c-.15 0-.23 0-.23-.12s.1-.12.3-.12h4.04c1.7 0 4 0 5.43 1.55a4.84 4.84 0 0 1 1.31 3.44 5.37 5.37 0 0 1-1.51 3.73 6.18 6.18 0 0 1-4.54 1.6c-1 0-2.21-.16-2.88-.16h-1.71c-.17 0-.27 0-.27-.14s.05-.11.22-.11a2.09 2.09 0 0 0 .49-.05c.27-.05.34-.35.39-.74.07-.57.07-1.64.07-2.89zM66.11 37.69v-2.87s-.13-.68-.58-.77a2.71 2.71 0 0 0-.53 0c-.15 0-.23 0-.23-.12s.1-.12.3-.12H70.46a5.77 5.77 0 0 0 .58-.08 1.3 1.3 0 0 1 .22-.05c.07 0 .08.05.08.12s-.07.26-.11.88c0 .14 0 .73-.07.89s0 .15-.13.15-.12-.07-.12-.19a1.46 1.46 0 0 0-.08-.49c-.09-.25-.23-.41-.91-.49-.23 0-1.65-.05-1.92-.05-.07 0-.1 0-.1.14V38c0 .1 0 .15.1.15h2.17a.94.94 0 0 0 .65-.2c.1-.11.15-.17.22-.17s.09 0 .09.11a9.37 9.37 0 0 0-.11 1c0 .27-.06.81-.06.91s0 .26-.12.26a.11.11 0 0 1-.12-.12 3.37 3.37 0 0 0-.05-.49c-.07-.27-.26-.48-.76-.53h-1.92c-.07 0-.08.05-.08.13v3.17c0 .93.24 1.14 1.63 1.14a3.42 3.42 0 0 0 1.27-.16c.35-.16.52-.45.61-1 0-.15.05-.2.15-.2s.11.11.11.25a10.85 10.85 0 0 1-.18 1.5c-.1.35-.22.35-.73.35-2 0-3-.08-3.75-.08h-1.71c-.18 0-.27 0-.27-.14s.05-.11.22-.11a2.09 2.09 0 0 0 .49-.05c.27-.05.34-.35.39-.74.07-.57.07-1.64.07-2.89zM75.15 42.16c0 1.06.2 1.41.47 1.5a2.12 2.12 0 0 0 .7.09c.15 0 .23 0 .23.11s-.12.14-.31.14H73.1c-.18 0-.3 0-.3-.14s.08-.11.22-.11a2.36 2.36 0 0 0 .61-.07c.35-.11.41-.5.42-1.68l.12-8c0-.27 0-.46.18-.46s.27.17.5.42 2.22 2.38 4.2 4.35c.92.92 2.75 2.87 3 3.09h.07l-.14-6.08c0-.83-.14-1.08-.46-1.22a2.19 2.19 0 0 0-.72-.08c-.16 0-.22 0-.22-.12s.15-.12.35-.12H83.9c.17 0 .31 0 .31.12s-.09.1-.3.1a1.45 1.45 0 0 0-.4 0c-.38.11-.49.39-.5 1.15l-.1 8.6c0 .3-.05.42-.18.42s-.31-.15-.46-.3c-.85-.81-2.59-2.59-4-4s-3-3.16-3.22-3.41zM91.98 40.07c0 1.3 0 2.32.07 2.89 0 .39.12.69.53.74a5.57 5.57 0 0 0 .68.05c.18 0 .23 0 .23.11s-.1.14-.3.14H89.41c-.19 0-.28 0-.28-.14s.05-.11.2-.11a2.2 2.2 0 0 0 .49-.05c.27-.05.34-.35.39-.74.07-.57.07-1.58.07-2.89v-2.38-2.87s-.14-.68-.58-.77a2.73 2.73 0 0 0-.53 0c-.14 0-.23 0-.23-.11s.11-.13.31-.13h5.53a2.77 2.77 0 0 0 .55-.06.92.92 0 0 1 .22-.08.11.11 0 0 1 .09.12c0 .1-.07.26-.11.61 0 .14 0 .93-.07 1.1s0 .19-.14.19-.12-.06-.13-.22a1.3 1.3 0 0 0-.08-.51 1 1 0 0 0-.89-.41h-2.09c-.08 0-.12 0-.12.19v3.39c0 .08 0 .12.1.12h2.34a.71.71 0 0 0 .58-.24c.07-.08.1-.13.17-.13s.08 0 .08.12-.07.42-.11.84-.06.89-.06 1 0 .26-.14.26-.11-.09-.11-.19a1.37 1.37 0 0 0-.08-.42.79.79 0 0 0-.69-.49h-2c-.07 0-.1 0-.1.12zM98.03 37.69v-2.87s-.14-.68-.58-.77a2.72 2.72 0 0 0-.54-.05c-.15 0-.23 0-.23-.12s.09-.12.3-.12h3.66c.21 0 .3 0 .3.12s-.08.12-.22.12a2 2 0 0 0-.39 0c-.37.07-.47.3-.5.77s0 .81 0 2.87v1.9c0 2 .39 2.79 1.06 3.33a2.5 2.5 0 0 0 1.69.56 2.66 2.66 0 0 0 1.87-.73c.74-.74.78-2 .78-3.36v-1.65-2.87s-.13-.68-.58-.77a2.54 2.54 0 0 0-.49 0c-.15 0-.23 0-.23-.12s.09-.12.28-.12H107.32c.19 0 .28 0 .28.12s-.08.12-.24.12a2 2 0 0 0-.39 0c-.37.07-.47.3-.5.77s0 .81 0 2.87v1.45c0 1.5-.15 3.1-1.29 4.08a4.05 4.05 0 0 1-2.82 1 4.36 4.36 0 0 1-3-.94c-.69-.62-1.2-1.63-1.2-3.59zM110.12 42.16c0 1.06.2 1.41.47 1.5a2.13 2.13 0 0 0 .71.09c.15 0 .23 0 .23.11s-.12.14-.31.14H108.08c-.17 0-.3 0-.3-.14s.08-.11.22-.11a2.33 2.33 0 0 0 .61-.07c.35-.11.41-.5.42-1.68l.12-8c0-.27 0-.46.18-.46s.27.17.5.42 2.22 2.38 4.2 4.35c.92.92 2.75 2.87 3 3.09h.07l-.19-6.09c0-.83-.14-1.08-.46-1.22a2.18 2.18 0 0 0-.72-.08c-.16 0-.22 0-.22-.12s.15-.12.35-.12H118.83c.18 0 .31 0 .31.12s-.08.12-.25.12a1.45 1.45 0 0 0-.41 0c-.38.11-.49.39-.5 1.15l-.07 8.59c0 .3-.05.42-.17.42s-.31-.15-.46-.3c-.85-.81-2.59-2.59-4-4s-3-3.16-3.23-3.41zM123.13 39.18v2.74a3 3 0 0 0 .15 1c.18.26.7.54 1.78.54a4.36 4.36 0 0 0 3.11-1 4.28 4.28 0 0 0 1.14-3.38 4.6 4.6 0 0 0-1.3-3.39 5.38 5.38 0 0 0-3.85-1.35 3.59 3.59 0 0 0-.88.1.24.24 0 0 0-.16.27v2.71zm-1.7-1.49v-2.87s-.14-.68-.58-.77a2.7 2.7 0 0 0-.53 0c-.15 0-.23 0-.23-.12s.09-.12.3-.12h4.03c1.7 0 4 0 5.44 1.55a4.84 4.84 0 0 1 1.31 3.44 5.38 5.38 0 0 1-1.48 3.78 6.18 6.18 0 0 1-4.54 1.6c-1 0-2.21-.16-2.88-.16h-1.71c-.17 0-.27 0-.27-.14s.05-.11.22-.11a2.08 2.08 0 0 0 .49-.05c.27-.05.34-.35.39-.74.07-.57.07-1.64.07-2.89zM41.76 38.94a1.35 1.35 0 0 1-1 .23 3.53 3.53 0 0 1-1-.14c-.1 0-.12-.1-.12-.24v-4.11c0-.11 0-.16.12-.19a3 3 0 0 1 .72-.05 2.17 2.17 0 0 1 2.07 2.48 2.38 2.38 0 0 1-.8 2m7.71-1l-.38-.28c-1.13-.85-1.44-1.33-1.44-2a1.43 1.43 0 0 1 1.61-1.4 1.71 1.71 0 0 1 1.48.67 1.62 1.62 0 0 1 .35.89c0 .16 0 .24.13.24s.15-.11.15-.41c0-1.06.05-1.45.05-1.63s-.07-.14-.19-.16a6.59 6.59 0 0 0-1.8-.23c-1.88 0-3.13 1.07-3.13 2.56a3.65 3.65 0 0 0 2 3.21c1.15.76 2.6 1.53 2.79 2.84.23 1.58-1.26 2.3-2.34 2.37-2 .13-4.37-1.11-6.4-5.4 1.37-1.11 1.79-2 1.79-3a2.34 2.34 0 0 0-.92-1.85 4.33 4.33 0 0 0-2.49-.58h-3.76c-.2 0-.3 0-.3.12s.08.12.23.12a2.71 2.71 0 0 1 .53 0c.45.09.55.31.58.77s0 .81 0 2.87v2.46c0 1.24 0 2.31-.06 2.88-.06.39-.12.69-.39.74a2.12 2.12 0 0 1-.49.06c-.16 0-.22 0-.22.11s.09.14.27.14h3.65c.18 0 .27 0 .27-.14s-.06-.11-.16-.11a6.13 6.13 0 0 1-.66-.06c-.41-.05-.49-.35-.53-.74-.07-.57-.07-1.64-.07-2.9v-.18c0-.08 0-.11.11-.11h1.18a.28.28 0 0 1 .25.09c.17.2.63 1.26 1.14 2 3.13 4.76 7.5 3.65 8.78 2.81a3.3 3.3 0 0 0 1.44-3.28c-.19-1.44-1.44-2.27-3.06-3.53M12.84 61.07h-1.46c-.57 0-.8.07-1 .29a1.15 1.15 0 0 0-.17.34c0 .08 0 .12-.11.12s-.09 0-.09-.16.19-1 .21-1.13.06-.19.12-.19a2.25 2.25 0 0 0 .42.12h4.9a4.35 4.35 0 0 0 .94-.1c.07 0 .08.06.08.21v1.14c0 .1 0 .16-.09.16s-.1 0-.11-.2v-.11c0-.25-.28-.53-1.16-.55h-1.24v6.1c0 .27.09.49.38.53a3.79 3.79 0 0 0 .5 0c.1 0 .16 0 .16.08s-.08.1-.18.1H12.16c-.13 0-.2 0-.2-.1s0-.08.16-.08a1.45 1.45 0 0 0 .35 0c.2 0 .26-.25.29-.54s0-1.19 0-2.09zM18.64 63.37v-2.08s-.1-.49-.42-.56a2.11 2.11 0 0 0-.38 0c-.11 0-.17 0-.17-.09s.07-.09.21-.09h3.88a3.61 3.61 0 0 0 .42-.06 1.07 1.07 0 0 1 .16 0s.06 0 .06.09 0 .19-.08.64v.65s0 .11-.1.11-.09 0-.09-.14a1.06 1.06 0 0 0-.06-.35c-.07-.18-.17-.3-.66-.35h-1.4s-.07 0-.07.1v2.49c0 .07 0 .11.07.11h1.57s.39 0 .47-.15.11-.13.16-.13.07 0 .07.08 0 .22-.08.72v.66s0 .19-.09.19a.145.145 0 0 1-.2-.21 2 2 0 0 0 0-.35c0-.2-.19-.34-.55-.38h-1.39c-.05 0-.06 0-.06.1v2.3c0 .68.18.82 1.18.82a2.54 2.54 0 0 0 .92-.12c.26-.12.37-.32.44-.73 0-.11 0-.15.11-.15s.08.08.08.18a7.34 7.34 0 0 1-.13 1.09c-.07.26-.16.26-.53.26-1.48 0-2.14-.06-2.72-.06h-1.24c-.13 0-.2 0-.2-.1s0-.08.16-.08a1.43 1.43 0 0 0 .36 0c.2 0 .24-.25.28-.54s.05-1.19.05-2.09zM27.8 63.37v-2.08s-.1-.49-.42-.56a2.1 2.1 0 0 0-.38 0c-.11 0-.17 0-.17-.09s.07-.09.22-.09h2.83a2.37 2.37 0 0 1 1.83.56 1.7 1.7 0 0 1 .49 1.17 2.31 2.31 0 0 1-2.42 2.38h-.21s-.12 0-.12-.09.07-.11.28-.11a1.55 1.55 0 0 0 1.32-1.62 1.89 1.89 0 0 0-.58-1.48 1.46 1.46 0 0 0-1-.38 1.41 1.41 0 0 0-.38 0c-.05 0-.08.08-.08.19v3.93c0 .9 0 1.68.05 2.1 0 .27.09.49.38.53a3.65 3.65 0 0 0 .5 0c.11 0 .16 0 .16.08s-.08.1-.19.1h-2.77c-.13 0-.2 0-.2-.1s0-.08.16-.08a1.43 1.43 0 0 0 .35 0c.2 0 .25-.25.28-.54s.05-1.19.05-2.09zM33.67 63.37v-2.08s-.1-.49-.42-.56a2.11 2.11 0 0 0-.38 0c-.11 0-.17 0-.17-.09s.07-.09.22-.09h2.65c.15 0 .22 0 .22.09s-.06.09-.16.09a1.56 1.56 0 0 0-.28 0c-.27.05-.34.22-.36.56s0 .59 0 2.08v1.38c0 1.42.28 2 .76 2.41a1.83 1.83 0 0 0 1.23.41 1.93 1.93 0 0 0 1.3-.57 3.37 3.37 0 0 0 .57-2.43v-1.2-2.08s-.1-.49-.42-.56a2 2 0 0 0-.35 0c-.11 0-.17 0-.17-.09s.07-.09.21-.09h2.25c.14 0 .21 0 .21.09s-.06.09-.17.09a1.59 1.59 0 0 0-.29 0c-.27.05-.34.22-.36.56s0 .59 0 2.08v1.05a3.73 3.73 0 0 1-.93 3 2.93 2.93 0 0 1-2 .71 3.16 3.16 0 0 1-2.18-.68 3.22 3.22 0 0 1-.87-2.6zM44.01 61.07h-1.46c-.57 0-.81.07-1 .29a1.11 1.11 0 0 0-.17.34c0 .08 0 .12-.11.12s-.09 0-.09-.16.19-1 .21-1.13.06-.19.12-.19a2.33 2.33 0 0 0 .42.12H46.82a4.34 4.34 0 0 0 .94-.1c.07 0 .08.06.08.21v1.14c0 .1 0 .16-.09.16s-.1 0-.11-.2v-.11c0-.25-.29-.53-1.16-.55h-1.24v6.1c0 .27.09.49.39.53a3.77 3.77 0 0 0 .5 0c.11 0 .16 0 .16.08s-.08.1-.19.1H43.32c-.13 0-.2 0-.2-.1s0-.08.16-.08a1.48 1.48 0 0 0 .35 0c.2 0 .26-.25.29-.54s0-1.19 0-2.09zM49.81 63.37v-2.08s-.1-.49-.42-.56a2.12 2.12 0 0 0-.38 0c-.11 0-.17 0-.17-.09s.07-.09.22-.09h3.85a3.49 3.49 0 0 0 .42-.06 1 1 0 0 1 .16 0s.06 0 .06.09 0 .19-.08.64c0 .1 0 .53-.05.65s0 .11-.1.11-.09 0-.09-.14a1.11 1.11 0 0 0-.06-.35c-.07-.18-.17-.3-.66-.35h-1.39s-.07 0-.07.1v2.49c0 .07 0 .11.07.11h1.57s.39 0 .47-.15.11-.13.16-.13.07 0 .07.08 0 .22-.08.72v.66s0 .19-.09.19a.08.08 0 0 1-.09-.09 2.35 2.35 0 0 0 0-.35c0-.2-.19-.34-.55-.38h-1.4c-.05 0-.06 0-.06.1v2.3c0 .68.17.82 1.18.82a2.54 2.54 0 0 0 .92-.12c.25-.12.38-.32.44-.73 0-.11 0-.15.11-.15s.08.08.08.18a7.91 7.91 0 0 1-.13 1.09c-.07.26-.16.26-.53.26-1.48 0-2.14-.06-2.72-.06h-1.24c-.13 0-.2 0-.2-.1s0-.08.16-.08a1.42 1.42 0 0 0 .35 0c.2 0 .25-.25.28-.54s0-1.19 0-2.09zM58.91 64.89c.05 0 .06 0 .05-.06l-.89-2.43v-.09s-.05 0-.06.09l-.9 2.42v.07zm-2 .49s-.07 0-.09.08l-.53 1.41a1.85 1.85 0 0 0-.15.6c0 .18.09.3.39.3h.15c.12 0 .15 0 .15.08s-.06.1-.17.1H54.5c-.13 0-.19 0-.19-.1s0-.08.12-.08h.31c.45-.06.64-.39.83-.88l2.47-6.17c.12-.28.18-.39.27-.39s.15.09.25.32c.24.54 1.81 4.55 2.44 6 .38.89.66 1 .87 1.07a2 2 0 0 0 .41 0c.08 0 .13 0 .13.08s-.09.1-.45.1H60.1c-.18 0-.29 0-.29-.08s0-.08.14-.09a.16.16 0 0 0 .09-.23l-.79-2.08a.09.09 0 0 0-.1-.07zM67.73 64.15c0 .11 0 .15.09.18a2.55 2.55 0 0 0 .75.1 1 1 0 0 0 .7-.17 1.73 1.73 0 0 0 .58-1.47 1.57 1.57 0 0 0-1.5-1.8 2.13 2.13 0 0 0-.52 0c-.07 0-.09.06-.09.14zm-1.16-.78v-2.08s-.1-.49-.42-.56a2.11 2.11 0 0 0-.38 0c-.11 0-.17 0-.17-.09s.07-.09.22-.09h2.74a3.14 3.14 0 0 1 1.81.42 1.7 1.7 0 0 1 .67 1.35 2.76 2.76 0 0 1-1.29 2.2c.87 1.1 1.55 2 2.13 2.58a2 2 0 0 0 1.1.67h.27c.08 0 .12 0 .12.08s-.07.1-.19.1h-.97a2 2 0 0 1-1.05-.19 4.76 4.76 0 0 1-1.35-1.44c-.39-.54-.84-1.21-1-1.36a.2.2 0 0 0-.18-.07h-.85s-.08 0-.08.08v2.24s.09.5.39.54a3.85 3.85 0 0 0 .48 0c.08 0 .12 0 .12.08s-.07.1-.2.1h-1.45l-1.13.07c-.13 0-.2 0-.2-.1s0-.08.16-.08a1.43 1.43 0 0 0 .35 0c.2 0 .25-.25.28-.54s.05-1.19.05-2.09z"/>
                    <path style="fill: #fff;" d="M77.72 64.89c.05 0 .06 0 .05-.06l-.86-2.42s0-.09-.05-.09 0 0-.06.09l-.89 2.42v.07zm-2 .49s-.07 0-.09.08l-.53 1.41a1.85 1.85 0 0 0-.15.6c0 .18.09.3.39.3h.15c.12 0 .15 0 .15.08s-.06.1-.17.1h-2.16c-.13 0-.19 0-.19-.1s0-.08.12-.08h.31c.45-.06.63-.39.83-.88l2.43-6.19c.12-.28.17-.39.27-.39s.15.09.25.32c.23.54 1.81 4.55 2.44 6 .37.89.66 1 .87 1.07a2 2 0 0 0 .41 0c.08 0 .13 0 .13.08s-.09.1-.45.1h-1.86c-.18 0-.29 0-.29-.08s0-.08.14-.09a.16.16 0 0 0 .09-.23l-.79-2.08a.1.1 0 0 0-.1-.07zM83.34 66.61c0 .77.15 1 .34 1.09a1.63 1.63 0 0 0 .51.07c.11 0 .17 0 .17.08s-.09.1-.23.1H81.85c-.13 0-.22 0-.22-.1s.06-.08.16-.08a1.7 1.7 0 0 0 .44 0c.25-.08.3-.36.31-1.22l.09-5.82c0-.2 0-.34.13-.34s.19.13.36.31 1.61 1.73 3 3.15c.67.67 2 2.08 2.16 2.24l-.1-4.41c0-.6-.1-.79-.34-.89a1.61 1.61 0 0 0-.52-.06c-.12 0-.16 0-.16-.09s.11-.09.26-.09h2.19c.13 0 .23 0 .23.09s-.06.09-.18.09a1.06 1.06 0 0 0-.29 0c-.28.08-.36.28-.36.84l-.11 6.2c0 .22 0 .31-.13.31s-.23-.11-.33-.22c-.53-.6-1.81-1.86-2.84-2.86s-2.16-2.29-2.34-2.48zM97.75 67.29c0 .27 0 .28-.13.35a5.56 5.56 0 0 1-2.37.44c-2.41 0-4.54-1.14-4.54-3.85A3.67 3.67 0 0 1 92.42 61a4.77 4.77 0 0 1 2.64-.64 11.93 11.93 0 0 1 1.74.16 6.17 6.17 0 0 0 .78.11c.12 0 .14 0 .14.12a13.65 13.65 0 0 0-.07 1.61c0 .16 0 .21-.11.21s-.09 0-.1-.13a1.38 1.38 0 0 0-.33-.82 3.15 3.15 0 0 0-2.2-.74 2.84 2.84 0 0 0-1.95.61 2.93 2.93 0 0 0-.9 2.41 3.41 3.41 0 0 0 3.42 3.7 2.18 2.18 0 0 0 .83-.11.35.35 0 0 0 .19-.36v-.93-1.16s-.1-.49-.42-.56a2.29 2.29 0 0 0-.38 0c-.09 0-.15 0-.15-.08s.07-.1.2-.1h2.57c.13 0 .2 0 .2.1s-.06.08-.13.08h-.27c-.26.05-.36.21-.37.56s0 .69 0 1.18zM103.12 64.89s.06 0 0-.06l-.88-2.43v-.09l-.06.09-.91 2.42v.07zm-2 .49s-.07 0-.09.08l-.53 1.41a1.89 1.89 0 0 0-.15.6c0 .18.09.3.4.3h.16c.12 0 .15 0 .15.08s-.06.1-.17.1h-2.16c-.13 0-.19 0-.19-.1s0-.08.12-.08h.3c.45-.06.64-.39.84-.88l2.47-6.17c.12-.28.17-.39.27-.39s.15.09.24.32c.24.54 1.81 4.55 2.44 6 .37.89.66 1 .86 1.07a2 2 0 0 0 .41 0c.08 0 .13 0 .13.08s-.09.1-.45.1h-1.86c-.18 0-.29 0-.29-.08s0-.08.14-.09a.16.16 0 0 0 .09-.23l-.79-2.08a.09.09 0 0 0-.1-.07zM113.08 63.65s.06 0 .06-.07v-.21-2.08s-.1-.49-.42-.56a2 2 0 0 0-.38 0c-.11 0-.17 0-.17-.09s.07-.09.21-.09h2.65c.14 0 .21 0 .21.09s-.06.09-.18.09h-.28c-.27 0-.35.22-.37.56s0 .59 0 2.08v3.83c0 .27.09.49.38.53a3.89 3.89 0 0 0 .5 0c.11 0 .16 0 .16.08s-.08.1-.2.1h-2.76c-.13 0-.2 0-.2-.1s0-.08.16-.08a1.53 1.53 0 0 0 .36 0c.2 0 .24-.25.28-.54s0-1.19 0-2.09v-.86a.06.06 0 0 0-.06-.06h-3.75s-.06 0-.06.06v2.96c0 .27.09.49.38.53a3.83 3.83 0 0 0 .5 0c.11 0 .16 0 .16.08s-.08.1-.19.1h-2.77c-.13 0-.2 0-.2-.1s0-.08.16-.08a1.54 1.54 0 0 0 .36 0c.19 0 .24-.25.28-.54s.05-1.19.05-2.09v-1.73-2.08s-.1-.49-.42-.56a2 2 0 0 0-.38 0c-.11 0-.17 0-.17-.09s.07-.09.21-.09h2.66c.14 0 .2 0 .2.09s-.06.09-.18.09h-.28c-.27 0-.34.22-.36.56s0 .59 0 2.08v.21c0 .05 0 .07.06.07zM120.58 64.89c.05 0 .06 0 .05-.06l-.89-2.43v-.09s-.05 0-.06.09l-.9 2.42v.07zm-2 .49s-.07 0-.09.08l-.58 1.41a2 2 0 0 0-.14.6c0 .18.09.3.39.3h.15c.12 0 .15 0 .15.08s-.06.1-.17.1h-2.16c-.13 0-.19 0-.19-.1s0-.08.12-.08h.3c.45-.06.64-.39.84-.88l2.47-6.17c.12-.28.18-.39.28-.39s.14.09.24.32c.24.54 1.81 4.55 2.44 6 .37.89.66 1 .86 1.07a2 2 0 0 0 .41 0c.08 0 .13 0 .13.08s-.09.1-.45.1h-1.86c-.18 0-.29 0-.29-.08s0-.08.14-.09a.16.16 0 0 0 .09-.23l-.75-2.04a.09.09 0 0 0-.1-.07zM124.34 63.37v-2.08s-.1-.49-.42-.56a2.15 2.15 0 0 0-.39 0c-.11 0-.16 0-.16-.09s.07-.09.22-.09H126.23c.15 0 .22 0 .22.09s-.06.09-.16.09a1.55 1.55 0 0 0-.28 0c-.27.05-.34.22-.36.56s0 .59 0 2.08v1.38c0 1.42.29 2 .77 2.41a1.81 1.81 0 0 0 1.23.41 1.93 1.93 0 0 0 1.26-.57 3.38 3.38 0 0 0 .57-2.43v-1.2-2.08s-.1-.49-.42-.56a2 2 0 0 0-.35 0c-.11 0-.17 0-.17-.09s.07-.09.21-.09H131c.14 0 .21 0 .21.09s-.06.09-.18.09a1.59 1.59 0 0 0-.28 0c-.27.05-.34.22-.36.56s0 .59 0 2.08v1.05a3.73 3.73 0 0 1-.93 3 2.93 2.93 0 0 1-2 .71 3.16 3.16 0 0 1-2.18-.68 3.22 3.22 0 0 1-.87-2.6zM13.91 75.85c.05 0 .06 0 .05-.06l-.88-2.43s0-.09-.05-.09 0 0-.05.09l-.91 2.41v.07zm-2 .49s-.07 0-.09.08l-.53 1.4a1.94 1.94 0 0 0-.15.6c0 .18.09.3.39.3h.15c.12 0 .15 0 .15.08s-.06.1-.17.1H9.5c-.13 0-.19 0-.19-.1s0-.08.12-.08h.31c.45-.06.64-.39.84-.89l2.47-6.17c.12-.28.17-.39.27-.39s.15.09.25.31c.24.54 1.81 4.55 2.44 6 .37.89.66 1 .86 1.07a2.06 2.06 0 0 0 .41 0c.08 0 .13 0 .13.08s-.09.1-.45.1H15.1c-.18 0-.29 0-.29-.08s0-.08.14-.09a.16.16 0 0 0 .09-.23l-.79-2.08a.09.09 0 0 0-.1-.07zM21.73 71.52c0-.17.09-.26.17-.26s.14 0 .26.3l2.68 5.54 2.67-5.6c.07-.16.13-.24.21-.24s.15.1.18.3l.89 6.07c.09.62.19.91.48 1a2 2 0 0 0 .61.1c.09 0 .16 0 .16.07s-.12.11-.26.11-1.6 0-2-.06c-.23 0-.28 0-.28-.11s0-.08.11-.11.09-.15 0-.42l-.59-4.32-2.11 4.46c-.23.46-.28.55-.37.55s-.19-.2-.34-.49c-.24-.45-1-2-1.13-2.23s-.68-1.45-1-2.18l-.51 3.91a4.16 4.16 0 0 0 0 .46c0 .19.13.28.29.31a1.8 1.8 0 0 0 .41.05c.08 0 .15 0 .15.07s-.09.11-.24.11h-2c-.1 0-.18 0-.18-.11s.06-.07.16-.07a1.23 1.23 0 0 0 .3 0c.28-.06.35-.44.4-.78zM34.91 75.85s.06 0 0-.06l-.88-2.43v-.09s-.05 0-.06.09l-.9 2.41v.07zm-2 .49s-.07 0-.09.08l-.53 1.4a2 2 0 0 0-.15.6c0 .18.09.3.39.3h.15c.12 0 .15 0 .15.08s-.06.1-.16.1h-2.16c-.13 0-.18 0-.18-.1s0-.08.12-.08h.3c.45-.06.64-.39.84-.89l2.47-6.17c.12-.28.18-.39.28-.39s.15.09.24.31c.24.54 1.81 4.55 2.44 6 .37.89.66 1 .86 1.07a2.07 2.07 0 0 0 .41 0c.08 0 .13 0 .13.08s-.09.1-.45.1h-1.86c-.18 0-.29 0-.29-.08s0-.08.14-.09a.16.16 0 0 0 .09-.23l-.78-2.08a.1.1 0 0 0-.1-.07zM40.97 75.1c0 .11 0 .15.08.17a2.54 2.54 0 0 0 .75.1 1 1 0 0 0 .7-.17 1.73 1.73 0 0 0 .58-1.48 1.57 1.57 0 0 0-1.5-1.8 2.13 2.13 0 0 0-.52 0c-.07 0-.08.06-.08.14zm-1.16-.78v-2.08s-.1-.49-.42-.56a2 2 0 0 0-.38 0c-.11 0-.17 0-.17-.09s.07-.09.21-.09h2.73a3.15 3.15 0 0 1 1.81.42 1.7 1.7 0 0 1 .67 1.35 2.76 2.76 0 0 1-1.3 2.2c.87 1.1 1.55 2 2.13 2.58a2 2 0 0 0 1.1.67h.28c.08 0 .12 0 .12.08s-.07.1-.19.1h-.93a2 2 0 0 1-1.05-.19 4.72 4.72 0 0 1-1.35-1.44c-.39-.54-.85-1.21-1-1.35a.21.21 0 0 0-.18-.07h-.86s-.08 0-.08.08v2.17s.09.5.39.54h.48c.08 0 .12 0 .12.08s-.07.1-.2.1H39.1c-.13 0-.2 0-.2-.1s0-.08.16-.08a1.52 1.52 0 0 0 .36 0c.2 0 .25-.26.28-.54s.05-1.19.05-2.09zM47.25 78.79c-.16-.07-.19-.12-.19-.33v-1.29s0-.26.12-.26.1.09.1.17a2 2 0 0 0 .09.5 1.35 1.35 0 0 0 1.4 1 1.2 1.2 0 0 0 1.32-1.12c0-.48-.15-.94-1-1.57l-.45-.35a2.92 2.92 0 0 1-1.46-2.33c0-1.08.91-1.86 2.27-1.86a4.79 4.79 0 0 1 1.31.17c.09 0 .14 0 .14.12v1.18c0 .21 0 .29-.11.29s-.1-.06-.1-.18a1.18 1.18 0 0 0-.26-.65 1.25 1.25 0 0 0-1.07-.48 1 1 0 0 0-1.17 1c0 .45.23.79 1 1.41l.27.21c1.18.92 1.61 1.57 1.61 2.51a2 2 0 0 1-.92 1.71 2.84 2.84 0 0 1-1.56.4 3.41 3.41 0 0 1-1.44-.26M54.5 75.41v2a2.21 2.21 0 0 0 .11.75c.13.19.51.39 1.29.39a3.16 3.16 0 0 0 2.26-.71 3.11 3.11 0 0 0 .83-2.45 3.33 3.33 0 0 0-.94-2.46 3.9 3.9 0 0 0-2.79-1 2.69 2.69 0 0 0-.64.07.18.18 0 0 0-.12.2v2zm-1.23-1.08v-2.08s-.1-.49-.42-.56a2 2 0 0 0-.38 0c-.11 0-.17 0-.17-.09s.07-.09.22-.09H55.45c1.23 0 2.87 0 3.94 1.12a3.5 3.5 0 0 1 1 2.49 3.92 3.92 0 0 1-1.07 2.74A4.49 4.49 0 0 1 55.91 79c-.72 0-1.6-.12-2.09-.12h-1.24c-.13 0-.2 0-.2-.1s0-.08.16-.08a1.54 1.54 0 0 0 .35 0c.2 0 .25-.26.28-.54s0-1.19 0-2.09zM62.1 74.33v-2.08s-.1-.49-.42-.56a2 2 0 0 0-.38 0c-.11 0-.17 0-.17-.09s.07-.09.21-.09h3.88l.42-.06a1 1 0 0 1 .16 0s.06 0 .06.09a6.15 6.15 0 0 0-.08.64v.65s0 .11-.1.11-.09 0-.09-.14a1.05 1.05 0 0 0-.06-.35c-.07-.18-.17-.29-.66-.35h-1.4s-.07 0-.07.1v2.49c0 .07 0 .11.07.11h1.57a.69.69 0 0 0 .47-.15c.07-.08.1-.13.16-.13s.07 0 .07.08 0 .21-.08.72v.66s0 .19-.09.19a.08.08 0 0 1-.09-.09 3.07 3.07 0 0 0 0-.35c0-.2-.19-.34-.55-.38h-1.4s-.06 0-.06.1v2.3c0 .68.18.83 1.18.83a2.46 2.46 0 0 0 .92-.12c.26-.12.37-.32.44-.73 0-.11 0-.15.11-.15s.08.08.08.18a8.1 8.1 0 0 1-.29.92c-.07.26-.16.26-.53.26-1.48 0-2.14-.06-2.72-.06h-1.24c-.13 0-.19 0-.19-.1s0-.08.16-.08a1.53 1.53 0 0 0 .35 0c.2 0 .25-.26.28-.54s.05-1.19.05-2.09zM68.79 77.57c0 .77.15 1 .34 1.09a1.58 1.58 0 0 0 .51.07c.11 0 .17 0 .17.08s-.09.1-.23.1H67.3c-.13 0-.22 0-.22-.1s.06-.08.16-.08a1.66 1.66 0 0 0 .44-.05c.26-.08.29-.36.31-1.22l.09-5.82c0-.19 0-.33.13-.33s.2.13.37.3 1.61 1.73 3 3.15c.67.67 2 2.08 2.16 2.24l-.1-4.41c0-.6-.1-.79-.33-.89a1.62 1.62 0 0 0-.52-.06c-.12 0-.16 0-.16-.09s.11-.09.25-.09h2.19c.13 0 .22 0 .22.09s-.06.09-.17.09a1.11 1.11 0 0 0-.3 0c-.27.08-.35.28-.36.84l-.11 6.2c0 .22 0 .3-.13.3s-.23-.11-.33-.22c-.62-.59-1.88-1.88-2.9-2.89s-2.08-2.24-2.28-2.43zM36.28 59.17a15.85 15.85 0 0 0-2.4.12 1.27 1.27 0 0 0 .06-.36 1.37 1.37 0 0 0-.06-.35c1 0 1.93.06 2.89.06s1.93 0 2.89-.06a1.16 1.16 0 0 0-.06.36 1.06 1.06 0 0 0 .06.34c-.63-.08-1.63-.1-2.4-.12h-1"/>
                </g>
            </g>
        </g>
    </symbol>

    <symbol id="marsden-logo-inverse" viewBox="0 0 324.34 100.37">
        <defs>
            <clipPath id="clip-path-2" transform="translate(-.09)">
                <path style="fill: none;" d="M0 12.69h140.6v74.99H0z"/>
            </clipPath>
        </defs>
        <g id="Layer_2" data-name="Layer 2">
            <g id="Layer_1-2" data-name="Layer 1">
                <g id="Layer_2-2" data-name="Layer 2">
                    <g id="Layer_1-2-2" data-name="Layer 1-2">
                        <path style="fill: #000;" d="M324.33 25.58l-5 3.61C302.72 41 279.91 54.78 263.5 55c6.3-17.8-4.18-52.86-41.1-54.93-23.19-1.31-47.92 17-48.33 47.31-.7 52.29 75.92 72.62 145.27 29.84l5-3.2z"/>
                        <path style="fill: #fff;" d="M190.13 54.94a3.87 3.87 0 0 0 2.59 1.06 1.78 1.78 0 0 0 2-1.55v-.16c0-2.49-4.95-1.85-4.95-4.92a2.85 2.85 0 0 1 3-2.65h.06a3.85 3.85 0 0 1 2.65 1l-.48.81a3.38 3.38 0 0 0-2.17-.84 1.89 1.89 0 0 0-2.09 1.67c0 2.35 4.95 1.67 4.95 4.92a2.73 2.73 0 0 1-2.78 2.72h-.22a4.37 4.37 0 0 1-3.14-1.26zM214.71 46.73a5 5 0 0 1 3.57 1.27l-.52.72a4.67 4.67 0 0 0-3-1.1 4 4 0 0 0-4 4v.13a4.08 4.08 0 0 0 3.87 4.25h.13a4.64 4.64 0 0 0 3.21-1.32l.56.69a5.29 5.29 0 0 1-3.79 1.53 5 5 0 0 1-5-5v-.17a4.91 4.91 0 0 1 4.79-5zM221.26 46.9h1v9.87h-1zM225.16 46.9h5.58v.87h-4.61v3.6h3.78v.87h-3.76v3.66h4.86v.87h-5.83zM236.5 47.77h-3.59v-.87h8.14v.87h-3.6v9h-1zM246.49 52.53l-3.34-5.63h1.11l2.1 3.58c.3.51.61 1.18.61 1.18s.3-.66.61-1.18l2.1-3.58h1.1l-3.31 5.63v4.24h-1zM202.83 46.75a5 5 0 0 1 5 5 5 5 0 1 1-5.09-5zm0 9.31a4.12 4.12 0 0 0 4-4.24 4.03 4.03 0 0 0-8.06 0 4.11 4.11 0 0 0 3.95 4.27zM203.07 27.81a5 5 0 1 1-.09 0zm0 9.31a4.12 4.12 0 0 0 4-4.24 4.03 4.03 0 0 0-8.06 0 4.11 4.11 0 0 0 3.9 4.24zM212.32 33.61L208.98 28h1.09l2.1 3.58c.3.51.61 1.18.61 1.18s.3-.66.61-1.18l2.14-3.58h1.1l-3.33 5.63v4.24h-1zM222.78 34.7h-4l-1.13 3.15h-1l3.62-9.85h1l3.64 9.88h-1zm-2-5.7s-.21.81-.38 1.28l-1.33 3.58h3.41l-1.3-3.58c-.17-.46-.38-1.28-.38-1.28zM227.38 28h1v9h4.59v.87h-5.59zM192.6 66.92h-3v-1.45h7.78v1.45h-3v7.81h-1.78zM199.77 65.47h5.56v1.45h-3.87v2.42h3.12v1.45h-3.12v2.49h4.08v1.45h-5.77zM216.85 72.35h-3.26l-.78 2.37h-1.74l3.27-9.25h1.73l3.27 9.25h-1.71zm-1.63-5.28s-.21.91-.39 1.43L214 71h2.43l-.82-2.48c-.17-.52-.37-1.43-.37-1.43zM272.48 65.32a5.07 5.07 0 0 1 3.43 1.17l-.86 1.25a4 4 0 0 0-2.47-.89 3 3 0 0 0-3.15 3.15 3.1 3.1 0 0 0 2.88 3.3h.23a3.5 3.5 0 0 0 2.33-1v-1h-1.43v-1.45h2.94v4.87h-1.47v-.83a3.94 3.94 0 0 1-2.69 1 4.56 4.56 0 0 1-4.56-4.56v-.24a4.67 4.67 0 0 1 4.57-4.77zM278.7 65.47h1.69v9.25h-1.69zM221.47 65.47h3.6a2.84 2.84 0 0 1 3 3 2.87 2.87 0 0 1-2.73 3h-2.17v3.19h-1.7zm3.27 4.6a1.46 1.46 0 0 0 1.56-1.59 1.44 1.44 0 0 0-1.31-1.56h-1.83v3.15zM238.91 65.47h3a4.33 4.33 0 0 1 1.87.26 2.61 2.61 0 0 1 1.52 2.53 2.66 2.66 0 0 1-1.57 2.53 2.27 2.27 0 0 1 .31.46l1.87 3.45h-1.88l-1.84-3.45h-1.63v3.45h-1.65zm3.16 4.34a1.34 1.34 0 0 0 1.46-1.46c0-.89-.38-1.43-1.7-1.43h-1.23v2.89zM253.42 72.35h-3.26l-.78 2.37h-1.74l3.27-9.25h1.76l3.24 9.25h-1.74zm-1.63-5.28s-.21.91-.39 1.43l-.83 2.5H253l-.82-2.48c-.17-.52-.37-1.43-.37-1.43zM257.98 65.47h1.69l3.52 5.34a14 14 0 0 1 .77 1.43s-.09-.89-.09-1.43v-5.34h1.67v9.25h-1.63l-3.52-5.33a14 14 0 0 1-.77-1.39s.09.89.09 1.43v5.33H258zM234.37 72.35h-3.3l-.78 2.37h-1.7l3.27-9.25h1.77l3.28 9.25h-1.74zm-1.63-5.28s-.21.91-.39 1.43l-.83 2.5h2.39l-.82-2.48c-.17-.52-.37-1.43-.37-1.43zM230.57 63.1h4.34v.68h-4.34z"/>
                        <path style="fill: #fff;" d="M202.51 41.7a10.29 10.29 0 0 1-7-4.77l-1.84-3.39.26-.09a2.72 2.72 0 0 0 1.87-2.67 2.63 2.63 0 0 0-1.49-2.54 4.41 4.41 0 0 0-1.83-.24h-2.93v9.87h1v-4.18h2.2l2 3.66a9.08 9.08 0 0 0 7.79 4.46h.59a3.17 3.17 0 0 0-.62-.11zm-12-8.88v-4h2a2.85 2.85 0 0 1 1.41.24 1.83 1.83 0 0 1 .9 1.73 1.85 1.85 0 0 1-1.69 2h-.31z"/>
                    </g>
                </g>
                <path style="fill: #ee7623;" d="M158.41 0h.75v100.37h-.75z"/>
                <path style="fill: #414042;" d="M0 52h140.51v35.68H0z"/>
                <path style="fill: #414042;" d="M9.46 52h121.68v30.59H9.46z"/>
                <path style="fill: #ee7623;" d="M0 12.75h140.51v39.34H0z"/>
                <g style="clip-path:url(#clip-path-2);">
                    <path style="fill: #fff;" d="M12.99 33.82c0-.23.12-.35.23-.35s.19.07.37.42l3.7 7.64 3.69-7.74c.1-.22.18-.32.3-.32s.2.14.24.42l1.23 8.37c.12.85.26 1.25.66 1.37a2.71 2.71 0 0 0 .84.14c.12 0 .22 0 .22.09s-.16.15-.35.15c-.34 0-2.21 0-2.75-.08-.31 0-.39-.07-.39-.15s.06-.11.15-.15.12-.2.07-.58l-.81-6h-.05l-3 6.15c-.31.64-.38.76-.5.76s-.25-.27-.47-.68c-.32-.62-1.4-2.7-1.56-3.08s-.94-2-1.41-3h-.05l-.7 5.39a5.21 5.21 0 0 0 0 .64c0 .26.17.38.41.43a2.62 2.62 0 0 0 .57.07c.11 0 .2 0 .2.09s-.12.15-.32.15h-2.77c-.13 0-.24 0-.24-.15s.08-.09.22-.09a1.78 1.78 0 0 0 .41 0c.38-.08.49-.61.56-1.07zM31.39 39.79c.07 0 .08 0 .07-.08l-1.22-3.35c0-.05 0-.12-.07-.12s-.07.07-.08.12l-1.24 3.34c0 .06 0 .09.06.09zm-2.76.68c-.07 0-.09 0-.12.11l-.73 1.94a2.65 2.65 0 0 0-.2.83c0 .24.12.42.54.42h.2c.16 0 .2 0 .2.11s-.08.14-.23.14h-3.04c-.18 0-.26 0-.26-.14s.05-.11.17-.11h.42c.62-.08.88-.54 1.15-1.22l3.4-8.55c.16-.39.24-.54.38-.54s.2.12.34.43c.32.75 2.49 6.27 3.36 8.33.51 1.22.91 1.41 1.19 1.48a2.83 2.83 0 0 0 .57.05c.11 0 .17 0 .17.11s-.12.14-.62.14h-2.56c-.24 0-.41 0-.41-.11s.06-.11.19-.12a.22.22 0 0 0 .12-.31l-1.08-2.87a.13.13 0 0 0-.14-.09zM56.37 39.18v2.74a2.92 2.92 0 0 0 .14 1c.18.26.71.54 1.78.54a4.35 4.35 0 0 0 3.11-1 4.28 4.28 0 0 0 1.14-3.38 4.61 4.61 0 0 0-1.3-3.39 5.37 5.37 0 0 0-3.85-1.35 3.64 3.64 0 0 0-.88.1.24.24 0 0 0-.16.27v2.71zm-1.69-1.49v-2.87s-.13-.68-.58-.77a2.73 2.73 0 0 0-.53 0c-.15 0-.23 0-.23-.12s.1-.12.3-.12h4.04c1.7 0 4 0 5.43 1.55a4.84 4.84 0 0 1 1.31 3.44 5.37 5.37 0 0 1-1.51 3.73 6.18 6.18 0 0 1-4.54 1.6c-1 0-2.21-.16-2.88-.16h-1.71c-.17 0-.27 0-.27-.14s.05-.11.22-.11a2.09 2.09 0 0 0 .49-.05c.27-.05.34-.35.39-.74.07-.57.07-1.64.07-2.89zM66.11 37.69v-2.87s-.13-.68-.58-.77a2.71 2.71 0 0 0-.53 0c-.15 0-.23 0-.23-.12s.1-.12.3-.12H70.46a5.77 5.77 0 0 0 .58-.08 1.3 1.3 0 0 1 .22-.05c.07 0 .08.05.08.12s-.07.26-.11.88c0 .14 0 .73-.07.89s0 .15-.13.15-.12-.07-.12-.19a1.46 1.46 0 0 0-.08-.49c-.09-.25-.23-.41-.91-.49-.23 0-1.65-.05-1.92-.05-.07 0-.1 0-.1.14V38c0 .1 0 .15.1.15h2.17a.94.94 0 0 0 .65-.2c.1-.11.15-.17.22-.17s.09 0 .09.11a9.37 9.37 0 0 0-.11 1c0 .27-.06.81-.06.91s0 .26-.12.26a.11.11 0 0 1-.12-.12 3.37 3.37 0 0 0-.05-.49c-.07-.27-.26-.48-.76-.53h-1.92c-.07 0-.08.05-.08.13v3.17c0 .93.24 1.14 1.63 1.14a3.42 3.42 0 0 0 1.27-.16c.35-.16.52-.45.61-1 0-.15.05-.2.15-.2s.11.11.11.25a10.85 10.85 0 0 1-.18 1.5c-.1.35-.22.35-.73.35-2 0-3-.08-3.75-.08h-1.71c-.18 0-.27 0-.27-.14s.05-.11.22-.11a2.09 2.09 0 0 0 .49-.05c.27-.05.34-.35.39-.74.07-.57.07-1.64.07-2.89zM75.15 42.16c0 1.06.2 1.41.47 1.5a2.12 2.12 0 0 0 .7.09c.15 0 .23 0 .23.11s-.12.14-.31.14H73.1c-.18 0-.3 0-.3-.14s.08-.11.22-.11a2.36 2.36 0 0 0 .61-.07c.35-.11.41-.5.42-1.68l.12-8c0-.27 0-.46.18-.46s.27.17.5.42 2.22 2.38 4.2 4.35c.92.92 2.75 2.87 3 3.09h.07l-.14-6.08c0-.83-.14-1.08-.46-1.22a2.19 2.19 0 0 0-.72-.08c-.16 0-.22 0-.22-.12s.15-.12.35-.12H83.9c.17 0 .31 0 .31.12s-.09.1-.3.1a1.45 1.45 0 0 0-.4 0c-.38.11-.49.39-.5 1.15l-.1 8.6c0 .3-.05.42-.18.42s-.31-.15-.46-.3c-.85-.81-2.59-2.59-4-4s-3-3.16-3.22-3.41zM91.98 40.07c0 1.3 0 2.32.07 2.89 0 .39.12.69.53.74a5.57 5.57 0 0 0 .68.05c.18 0 .23 0 .23.11s-.1.14-.3.14H89.41c-.19 0-.28 0-.28-.14s.05-.11.2-.11a2.2 2.2 0 0 0 .49-.05c.27-.05.34-.35.39-.74.07-.57.07-1.58.07-2.89v-2.38-2.87s-.14-.68-.58-.77a2.73 2.73 0 0 0-.53 0c-.14 0-.23 0-.23-.11s.11-.13.31-.13h5.53a2.77 2.77 0 0 0 .55-.06.92.92 0 0 1 .22-.08.11.11 0 0 1 .09.12c0 .1-.07.26-.11.61 0 .14 0 .93-.07 1.1s0 .19-.14.19-.12-.06-.13-.22a1.3 1.3 0 0 0-.08-.51 1 1 0 0 0-.89-.41h-2.09c-.08 0-.12 0-.12.19v3.39c0 .08 0 .12.1.12h2.34a.71.71 0 0 0 .58-.24c.07-.08.1-.13.17-.13s.08 0 .08.12-.07.42-.11.84-.06.89-.06 1 0 .26-.14.26-.11-.09-.11-.19a1.37 1.37 0 0 0-.08-.42.79.79 0 0 0-.69-.49h-2c-.07 0-.1 0-.1.12zM98.03 37.69v-2.87s-.14-.68-.58-.77a2.72 2.72 0 0 0-.54-.05c-.15 0-.23 0-.23-.12s.09-.12.3-.12h3.66c.21 0 .3 0 .3.12s-.08.12-.22.12a2 2 0 0 0-.39 0c-.37.07-.47.3-.5.77s0 .81 0 2.87v1.9c0 2 .39 2.79 1.06 3.33a2.5 2.5 0 0 0 1.69.56 2.66 2.66 0 0 0 1.87-.73c.74-.74.78-2 .78-3.36v-1.65-2.87s-.13-.68-.58-.77a2.54 2.54 0 0 0-.49 0c-.15 0-.23 0-.23-.12s.09-.12.28-.12H107.32c.19 0 .28 0 .28.12s-.08.12-.24.12a2 2 0 0 0-.39 0c-.37.07-.47.3-.5.77s0 .81 0 2.87v1.45c0 1.5-.15 3.1-1.29 4.08a4.05 4.05 0 0 1-2.82 1 4.36 4.36 0 0 1-3-.94c-.69-.62-1.2-1.63-1.2-3.59zM110.12 42.16c0 1.06.2 1.41.47 1.5a2.13 2.13 0 0 0 .71.09c.15 0 .23 0 .23.11s-.12.14-.31.14H108.08c-.17 0-.3 0-.3-.14s.08-.11.22-.11a2.33 2.33 0 0 0 .61-.07c.35-.11.41-.5.42-1.68l.12-8c0-.27 0-.46.18-.46s.27.17.5.42 2.22 2.38 4.2 4.35c.92.92 2.75 2.87 3 3.09h.07l-.19-6.09c0-.83-.14-1.08-.46-1.22a2.18 2.18 0 0 0-.72-.08c-.16 0-.22 0-.22-.12s.15-.12.35-.12H118.83c.18 0 .31 0 .31.12s-.08.12-.25.12a1.45 1.45 0 0 0-.41 0c-.38.11-.49.39-.5 1.15l-.07 8.59c0 .3-.05.42-.17.42s-.31-.15-.46-.3c-.85-.81-2.59-2.59-4-4s-3-3.16-3.23-3.41zM123.13 39.18v2.74a3 3 0 0 0 .15 1c.18.26.7.54 1.78.54a4.36 4.36 0 0 0 3.11-1 4.28 4.28 0 0 0 1.14-3.38 4.6 4.6 0 0 0-1.3-3.39 5.38 5.38 0 0 0-3.85-1.35 3.59 3.59 0 0 0-.88.1.24.24 0 0 0-.16.27v2.71zm-1.7-1.49v-2.87s-.14-.68-.58-.77a2.7 2.7 0 0 0-.53 0c-.15 0-.23 0-.23-.12s.09-.12.3-.12h4.03c1.7 0 4 0 5.44 1.55a4.84 4.84 0 0 1 1.31 3.44 5.38 5.38 0 0 1-1.48 3.78 6.18 6.18 0 0 1-4.54 1.6c-1 0-2.21-.16-2.88-.16h-1.71c-.17 0-.27 0-.27-.14s.05-.11.22-.11a2.08 2.08 0 0 0 .49-.05c.27-.05.34-.35.39-.74.07-.57.07-1.64.07-2.89zM41.76 38.94a1.35 1.35 0 0 1-1 .23 3.53 3.53 0 0 1-1-.14c-.1 0-.12-.1-.12-.24v-4.11c0-.11 0-.16.12-.19a3 3 0 0 1 .72-.05 2.17 2.17 0 0 1 2.07 2.48 2.38 2.38 0 0 1-.8 2m7.71-1l-.38-.28c-1.13-.85-1.44-1.33-1.44-2a1.43 1.43 0 0 1 1.61-1.4 1.71 1.71 0 0 1 1.48.67 1.62 1.62 0 0 1 .35.89c0 .16 0 .24.13.24s.15-.11.15-.41c0-1.06.05-1.45.05-1.63s-.07-.14-.19-.16a6.59 6.59 0 0 0-1.8-.23c-1.88 0-3.13 1.07-3.13 2.56a3.65 3.65 0 0 0 2 3.21c1.15.76 2.6 1.53 2.79 2.84.23 1.58-1.26 2.3-2.34 2.37-2 .13-4.37-1.11-6.4-5.4 1.37-1.11 1.79-2 1.79-3a2.34 2.34 0 0 0-.92-1.85 4.33 4.33 0 0 0-2.49-.58h-3.76c-.2 0-.3 0-.3.12s.08.12.23.12a2.71 2.71 0 0 1 .53 0c.45.09.55.31.58.77s0 .81 0 2.87v2.46c0 1.24 0 2.31-.06 2.88-.06.39-.12.69-.39.74a2.12 2.12 0 0 1-.49.06c-.16 0-.22 0-.22.11s.09.14.27.14h3.65c.18 0 .27 0 .27-.14s-.06-.11-.16-.11a6.13 6.13 0 0 1-.66-.06c-.41-.05-.49-.35-.53-.74-.07-.57-.07-1.64-.07-2.9v-.18c0-.08 0-.11.11-.11h1.18a.28.28 0 0 1 .25.09c.17.2.63 1.26 1.14 2 3.13 4.76 7.5 3.65 8.78 2.81a3.3 3.3 0 0 0 1.44-3.28c-.19-1.44-1.44-2.27-3.06-3.53M12.84 61.07h-1.46c-.57 0-.8.07-1 .29a1.15 1.15 0 0 0-.17.34c0 .08 0 .12-.11.12s-.09 0-.09-.16.19-1 .21-1.13.06-.19.12-.19a2.25 2.25 0 0 0 .42.12h4.9a4.35 4.35 0 0 0 .94-.1c.07 0 .08.06.08.21v1.14c0 .1 0 .16-.09.16s-.1 0-.11-.2v-.11c0-.25-.28-.53-1.16-.55h-1.24v6.1c0 .27.09.49.38.53a3.79 3.79 0 0 0 .5 0c.1 0 .16 0 .16.08s-.08.1-.18.1H12.16c-.13 0-.2 0-.2-.1s0-.08.16-.08a1.45 1.45 0 0 0 .35 0c.2 0 .26-.25.29-.54s0-1.19 0-2.09zM18.64 63.37v-2.08s-.1-.49-.42-.56a2.11 2.11 0 0 0-.38 0c-.11 0-.17 0-.17-.09s.07-.09.21-.09h3.88a3.61 3.61 0 0 0 .42-.06 1.07 1.07 0 0 1 .16 0s.06 0 .06.09 0 .19-.08.64v.65s0 .11-.1.11-.09 0-.09-.14a1.06 1.06 0 0 0-.06-.35c-.07-.18-.17-.3-.66-.35h-1.4s-.07 0-.07.1v2.49c0 .07 0 .11.07.11h1.57s.39 0 .47-.15.11-.13.16-.13.07 0 .07.08 0 .22-.08.72v.66s0 .19-.09.19a.145.145 0 0 1-.2-.21 2 2 0 0 0 0-.35c0-.2-.19-.34-.55-.38h-1.39c-.05 0-.06 0-.06.1v2.3c0 .68.18.82 1.18.82a2.54 2.54 0 0 0 .92-.12c.26-.12.37-.32.44-.73 0-.11 0-.15.11-.15s.08.08.08.18a7.34 7.34 0 0 1-.13 1.09c-.07.26-.16.26-.53.26-1.48 0-2.14-.06-2.72-.06h-1.24c-.13 0-.2 0-.2-.1s0-.08.16-.08a1.43 1.43 0 0 0 .36 0c.2 0 .24-.25.28-.54s.05-1.19.05-2.09zM27.8 63.37v-2.08s-.1-.49-.42-.56a2.1 2.1 0 0 0-.38 0c-.11 0-.17 0-.17-.09s.07-.09.22-.09h2.83a2.37 2.37 0 0 1 1.83.56 1.7 1.7 0 0 1 .49 1.17 2.31 2.31 0 0 1-2.42 2.38h-.21s-.12 0-.12-.09.07-.11.28-.11a1.55 1.55 0 0 0 1.32-1.62 1.89 1.89 0 0 0-.58-1.48 1.46 1.46 0 0 0-1-.38 1.41 1.41 0 0 0-.38 0c-.05 0-.08.08-.08.19v3.93c0 .9 0 1.68.05 2.1 0 .27.09.49.38.53a3.65 3.65 0 0 0 .5 0c.11 0 .16 0 .16.08s-.08.1-.19.1h-2.77c-.13 0-.2 0-.2-.1s0-.08.16-.08a1.43 1.43 0 0 0 .35 0c.2 0 .25-.25.28-.54s.05-1.19.05-2.09zM33.67 63.37v-2.08s-.1-.49-.42-.56a2.11 2.11 0 0 0-.38 0c-.11 0-.17 0-.17-.09s.07-.09.22-.09h2.65c.15 0 .22 0 .22.09s-.06.09-.16.09a1.56 1.56 0 0 0-.28 0c-.27.05-.34.22-.36.56s0 .59 0 2.08v1.38c0 1.42.28 2 .76 2.41a1.83 1.83 0 0 0 1.23.41 1.93 1.93 0 0 0 1.3-.57 3.37 3.37 0 0 0 .57-2.43v-1.2-2.08s-.1-.49-.42-.56a2 2 0 0 0-.35 0c-.11 0-.17 0-.17-.09s.07-.09.21-.09h2.25c.14 0 .21 0 .21.09s-.06.09-.17.09a1.59 1.59 0 0 0-.29 0c-.27.05-.34.22-.36.56s0 .59 0 2.08v1.05a3.73 3.73 0 0 1-.93 3 2.93 2.93 0 0 1-2 .71 3.16 3.16 0 0 1-2.18-.68 3.22 3.22 0 0 1-.87-2.6zM44.01 61.07h-1.46c-.57 0-.81.07-1 .29a1.11 1.11 0 0 0-.17.34c0 .08 0 .12-.11.12s-.09 0-.09-.16.19-1 .21-1.13.06-.19.12-.19a2.33 2.33 0 0 0 .42.12H46.82a4.34 4.34 0 0 0 .94-.1c.07 0 .08.06.08.21v1.14c0 .1 0 .16-.09.16s-.1 0-.11-.2v-.11c0-.25-.29-.53-1.16-.55h-1.24v6.1c0 .27.09.49.39.53a3.77 3.77 0 0 0 .5 0c.11 0 .16 0 .16.08s-.08.1-.19.1H43.32c-.13 0-.2 0-.2-.1s0-.08.16-.08a1.48 1.48 0 0 0 .35 0c.2 0 .26-.25.29-.54s0-1.19 0-2.09zM49.81 63.37v-2.08s-.1-.49-.42-.56a2.12 2.12 0 0 0-.38 0c-.11 0-.17 0-.17-.09s.07-.09.22-.09h3.85a3.49 3.49 0 0 0 .42-.06 1 1 0 0 1 .16 0s.06 0 .06.09 0 .19-.08.64c0 .1 0 .53-.05.65s0 .11-.1.11-.09 0-.09-.14a1.11 1.11 0 0 0-.06-.35c-.07-.18-.17-.3-.66-.35h-1.39s-.07 0-.07.1v2.49c0 .07 0 .11.07.11h1.57s.39 0 .47-.15.11-.13.16-.13.07 0 .07.08 0 .22-.08.72v.66s0 .19-.09.19a.08.08 0 0 1-.09-.09 2.35 2.35 0 0 0 0-.35c0-.2-.19-.34-.55-.38h-1.4c-.05 0-.06 0-.06.1v2.3c0 .68.17.82 1.18.82a2.54 2.54 0 0 0 .92-.12c.25-.12.38-.32.44-.73 0-.11 0-.15.11-.15s.08.08.08.18a7.91 7.91 0 0 1-.13 1.09c-.07.26-.16.26-.53.26-1.48 0-2.14-.06-2.72-.06h-1.24c-.13 0-.2 0-.2-.1s0-.08.16-.08a1.42 1.42 0 0 0 .35 0c.2 0 .25-.25.28-.54s0-1.19 0-2.09zM58.91 64.89c.05 0 .06 0 .05-.06l-.89-2.43v-.09s-.05 0-.06.09l-.9 2.42v.07zm-2 .49s-.07 0-.09.08l-.53 1.41a1.85 1.85 0 0 0-.15.6c0 .18.09.3.39.3h.15c.12 0 .15 0 .15.08s-.06.1-.17.1H54.5c-.13 0-.19 0-.19-.1s0-.08.12-.08h.31c.45-.06.64-.39.83-.88l2.47-6.17c.12-.28.18-.39.27-.39s.15.09.25.32c.24.54 1.81 4.55 2.44 6 .38.89.66 1 .87 1.07a2 2 0 0 0 .41 0c.08 0 .13 0 .13.08s-.09.1-.45.1H60.1c-.18 0-.29 0-.29-.08s0-.08.14-.09a.16.16 0 0 0 .09-.23l-.79-2.08a.09.09 0 0 0-.1-.07zM67.73 64.15c0 .11 0 .15.09.18a2.55 2.55 0 0 0 .75.1 1 1 0 0 0 .7-.17 1.73 1.73 0 0 0 .58-1.47 1.57 1.57 0 0 0-1.5-1.8 2.13 2.13 0 0 0-.52 0c-.07 0-.09.06-.09.14zm-1.16-.78v-2.08s-.1-.49-.42-.56a2.11 2.11 0 0 0-.38 0c-.11 0-.17 0-.17-.09s.07-.09.22-.09h2.74a3.14 3.14 0 0 1 1.81.42 1.7 1.7 0 0 1 .67 1.35 2.76 2.76 0 0 1-1.29 2.2c.87 1.1 1.55 2 2.13 2.58a2 2 0 0 0 1.1.67h.27c.08 0 .12 0 .12.08s-.07.1-.19.1h-.97a2 2 0 0 1-1.05-.19 4.76 4.76 0 0 1-1.35-1.44c-.39-.54-.84-1.21-1-1.36a.2.2 0 0 0-.18-.07h-.85s-.08 0-.08.08v2.24s.09.5.39.54a3.85 3.85 0 0 0 .48 0c.08 0 .12 0 .12.08s-.07.1-.2.1h-1.45l-1.13.07c-.13 0-.2 0-.2-.1s0-.08.16-.08a1.43 1.43 0 0 0 .35 0c.2 0 .25-.25.28-.54s.05-1.19.05-2.09z"/>
                    <path style="fill: #fff;" d="M77.72 64.89c.05 0 .06 0 .05-.06l-.86-2.42s0-.09-.05-.09 0 0-.06.09l-.89 2.42v.07zm-2 .49s-.07 0-.09.08l-.53 1.41a1.85 1.85 0 0 0-.15.6c0 .18.09.3.39.3h.15c.12 0 .15 0 .15.08s-.06.1-.17.1h-2.16c-.13 0-.19 0-.19-.1s0-.08.12-.08h.31c.45-.06.63-.39.83-.88l2.43-6.19c.12-.28.17-.39.27-.39s.15.09.25.32c.23.54 1.81 4.55 2.44 6 .37.89.66 1 .87 1.07a2 2 0 0 0 .41 0c.08 0 .13 0 .13.08s-.09.1-.45.1h-1.86c-.18 0-.29 0-.29-.08s0-.08.14-.09a.16.16 0 0 0 .09-.23l-.79-2.08a.1.1 0 0 0-.1-.07zM83.34 66.61c0 .77.15 1 .34 1.09a1.63 1.63 0 0 0 .51.07c.11 0 .17 0 .17.08s-.09.1-.23.1H81.85c-.13 0-.22 0-.22-.1s.06-.08.16-.08a1.7 1.7 0 0 0 .44 0c.25-.08.3-.36.31-1.22l.09-5.82c0-.2 0-.34.13-.34s.19.13.36.31 1.61 1.73 3 3.15c.67.67 2 2.08 2.16 2.24l-.1-4.41c0-.6-.1-.79-.34-.89a1.61 1.61 0 0 0-.52-.06c-.12 0-.16 0-.16-.09s.11-.09.26-.09h2.19c.13 0 .23 0 .23.09s-.06.09-.18.09a1.06 1.06 0 0 0-.29 0c-.28.08-.36.28-.36.84l-.11 6.2c0 .22 0 .31-.13.31s-.23-.11-.33-.22c-.53-.6-1.81-1.86-2.84-2.86s-2.16-2.29-2.34-2.48zM97.75 67.29c0 .27 0 .28-.13.35a5.56 5.56 0 0 1-2.37.44c-2.41 0-4.54-1.14-4.54-3.85A3.67 3.67 0 0 1 92.42 61a4.77 4.77 0 0 1 2.64-.64 11.93 11.93 0 0 1 1.74.16 6.17 6.17 0 0 0 .78.11c.12 0 .14 0 .14.12a13.65 13.65 0 0 0-.07 1.61c0 .16 0 .21-.11.21s-.09 0-.1-.13a1.38 1.38 0 0 0-.33-.82 3.15 3.15 0 0 0-2.2-.74 2.84 2.84 0 0 0-1.95.61 2.93 2.93 0 0 0-.9 2.41 3.41 3.41 0 0 0 3.42 3.7 2.18 2.18 0 0 0 .83-.11.35.35 0 0 0 .19-.36v-.93-1.16s-.1-.49-.42-.56a2.29 2.29 0 0 0-.38 0c-.09 0-.15 0-.15-.08s.07-.1.2-.1h2.57c.13 0 .2 0 .2.1s-.06.08-.13.08h-.27c-.26.05-.36.21-.37.56s0 .69 0 1.18zM103.12 64.89s.06 0 0-.06l-.88-2.43v-.09l-.06.09-.91 2.42v.07zm-2 .49s-.07 0-.09.08l-.53 1.41a1.89 1.89 0 0 0-.15.6c0 .18.09.3.4.3h.16c.12 0 .15 0 .15.08s-.06.1-.17.1h-2.16c-.13 0-.19 0-.19-.1s0-.08.12-.08h.3c.45-.06.64-.39.84-.88l2.47-6.17c.12-.28.17-.39.27-.39s.15.09.24.32c.24.54 1.81 4.55 2.44 6 .37.89.66 1 .86 1.07a2 2 0 0 0 .41 0c.08 0 .13 0 .13.08s-.09.1-.45.1h-1.86c-.18 0-.29 0-.29-.08s0-.08.14-.09a.16.16 0 0 0 .09-.23l-.79-2.08a.09.09 0 0 0-.1-.07zM113.08 63.65s.06 0 .06-.07v-.21-2.08s-.1-.49-.42-.56a2 2 0 0 0-.38 0c-.11 0-.17 0-.17-.09s.07-.09.21-.09h2.65c.14 0 .21 0 .21.09s-.06.09-.18.09h-.28c-.27 0-.35.22-.37.56s0 .59 0 2.08v3.83c0 .27.09.49.38.53a3.89 3.89 0 0 0 .5 0c.11 0 .16 0 .16.08s-.08.1-.2.1h-2.76c-.13 0-.2 0-.2-.1s0-.08.16-.08a1.53 1.53 0 0 0 .36 0c.2 0 .24-.25.28-.54s0-1.19 0-2.09v-.86a.06.06 0 0 0-.06-.06h-3.75s-.06 0-.06.06v2.96c0 .27.09.49.38.53a3.83 3.83 0 0 0 .5 0c.11 0 .16 0 .16.08s-.08.1-.19.1h-2.77c-.13 0-.2 0-.2-.1s0-.08.16-.08a1.54 1.54 0 0 0 .36 0c.19 0 .24-.25.28-.54s.05-1.19.05-2.09v-1.73-2.08s-.1-.49-.42-.56a2 2 0 0 0-.38 0c-.11 0-.17 0-.17-.09s.07-.09.21-.09h2.66c.14 0 .2 0 .2.09s-.06.09-.18.09h-.28c-.27 0-.34.22-.36.56s0 .59 0 2.08v.21c0 .05 0 .07.06.07zM120.58 64.89c.05 0 .06 0 .05-.06l-.89-2.43v-.09s-.05 0-.06.09l-.9 2.42v.07zm-2 .49s-.07 0-.09.08l-.58 1.41a2 2 0 0 0-.14.6c0 .18.09.3.39.3h.15c.12 0 .15 0 .15.08s-.06.1-.17.1h-2.16c-.13 0-.19 0-.19-.1s0-.08.12-.08h.3c.45-.06.64-.39.84-.88l2.47-6.17c.12-.28.18-.39.28-.39s.14.09.24.32c.24.54 1.81 4.55 2.44 6 .37.89.66 1 .86 1.07a2 2 0 0 0 .41 0c.08 0 .13 0 .13.08s-.09.1-.45.1h-1.86c-.18 0-.29 0-.29-.08s0-.08.14-.09a.16.16 0 0 0 .09-.23l-.75-2.04a.09.09 0 0 0-.1-.07zM124.34 63.37v-2.08s-.1-.49-.42-.56a2.15 2.15 0 0 0-.39 0c-.11 0-.16 0-.16-.09s.07-.09.22-.09H126.23c.15 0 .22 0 .22.09s-.06.09-.16.09a1.55 1.55 0 0 0-.28 0c-.27.05-.34.22-.36.56s0 .59 0 2.08v1.38c0 1.42.29 2 .77 2.41a1.81 1.81 0 0 0 1.23.41 1.93 1.93 0 0 0 1.26-.57 3.38 3.38 0 0 0 .57-2.43v-1.2-2.08s-.1-.49-.42-.56a2 2 0 0 0-.35 0c-.11 0-.17 0-.17-.09s.07-.09.21-.09H131c.14 0 .21 0 .21.09s-.06.09-.18.09a1.59 1.59 0 0 0-.28 0c-.27.05-.34.22-.36.56s0 .59 0 2.08v1.05a3.73 3.73 0 0 1-.93 3 2.93 2.93 0 0 1-2 .71 3.16 3.16 0 0 1-2.18-.68 3.22 3.22 0 0 1-.87-2.6zM13.91 75.85c.05 0 .06 0 .05-.06l-.88-2.43s0-.09-.05-.09 0 0-.05.09l-.91 2.41v.07zm-2 .49s-.07 0-.09.08l-.53 1.4a1.94 1.94 0 0 0-.15.6c0 .18.09.3.39.3h.15c.12 0 .15 0 .15.08s-.06.1-.17.1H9.5c-.13 0-.19 0-.19-.1s0-.08.12-.08h.31c.45-.06.64-.39.84-.89l2.47-6.17c.12-.28.17-.39.27-.39s.15.09.25.31c.24.54 1.81 4.55 2.44 6 .37.89.66 1 .86 1.07a2.06 2.06 0 0 0 .41 0c.08 0 .13 0 .13.08s-.09.1-.45.1H15.1c-.18 0-.29 0-.29-.08s0-.08.14-.09a.16.16 0 0 0 .09-.23l-.79-2.08a.09.09 0 0 0-.1-.07zM21.73 71.52c0-.17.09-.26.17-.26s.14 0 .26.3l2.68 5.54 2.67-5.6c.07-.16.13-.24.21-.24s.15.1.18.3l.89 6.07c.09.62.19.91.48 1a2 2 0 0 0 .61.1c.09 0 .16 0 .16.07s-.12.11-.26.11-1.6 0-2-.06c-.23 0-.28 0-.28-.11s0-.08.11-.11.09-.15 0-.42l-.59-4.32-2.11 4.46c-.23.46-.28.55-.37.55s-.19-.2-.34-.49c-.24-.45-1-2-1.13-2.23s-.68-1.45-1-2.18l-.51 3.91a4.16 4.16 0 0 0 0 .46c0 .19.13.28.29.31a1.8 1.8 0 0 0 .41.05c.08 0 .15 0 .15.07s-.09.11-.24.11h-2c-.1 0-.18 0-.18-.11s.06-.07.16-.07a1.23 1.23 0 0 0 .3 0c.28-.06.35-.44.4-.78zM34.91 75.85s.06 0 0-.06l-.88-2.43v-.09s-.05 0-.06.09l-.9 2.41v.07zm-2 .49s-.07 0-.09.08l-.53 1.4a2 2 0 0 0-.15.6c0 .18.09.3.39.3h.15c.12 0 .15 0 .15.08s-.06.1-.16.1h-2.16c-.13 0-.18 0-.18-.1s0-.08.12-.08h.3c.45-.06.64-.39.84-.89l2.47-6.17c.12-.28.18-.39.28-.39s.15.09.24.31c.24.54 1.81 4.55 2.44 6 .37.89.66 1 .86 1.07a2.07 2.07 0 0 0 .41 0c.08 0 .13 0 .13.08s-.09.1-.45.1h-1.86c-.18 0-.29 0-.29-.08s0-.08.14-.09a.16.16 0 0 0 .09-.23l-.78-2.08a.1.1 0 0 0-.1-.07zM40.97 75.1c0 .11 0 .15.08.17a2.54 2.54 0 0 0 .75.1 1 1 0 0 0 .7-.17 1.73 1.73 0 0 0 .58-1.48 1.57 1.57 0 0 0-1.5-1.8 2.13 2.13 0 0 0-.52 0c-.07 0-.08.06-.08.14zm-1.16-.78v-2.08s-.1-.49-.42-.56a2 2 0 0 0-.38 0c-.11 0-.17 0-.17-.09s.07-.09.21-.09h2.73a3.15 3.15 0 0 1 1.81.42 1.7 1.7 0 0 1 .67 1.35 2.76 2.76 0 0 1-1.3 2.2c.87 1.1 1.55 2 2.13 2.58a2 2 0 0 0 1.1.67h.28c.08 0 .12 0 .12.08s-.07.1-.19.1h-.93a2 2 0 0 1-1.05-.19 4.72 4.72 0 0 1-1.35-1.44c-.39-.54-.85-1.21-1-1.35a.21.21 0 0 0-.18-.07h-.86s-.08 0-.08.08v2.17s.09.5.39.54h.48c.08 0 .12 0 .12.08s-.07.1-.2.1H39.1c-.13 0-.2 0-.2-.1s0-.08.16-.08a1.52 1.52 0 0 0 .36 0c.2 0 .25-.26.28-.54s.05-1.19.05-2.09zM47.25 78.79c-.16-.07-.19-.12-.19-.33v-1.29s0-.26.12-.26.1.09.1.17a2 2 0 0 0 .09.5 1.35 1.35 0 0 0 1.4 1 1.2 1.2 0 0 0 1.32-1.12c0-.48-.15-.94-1-1.57l-.45-.35a2.92 2.92 0 0 1-1.46-2.33c0-1.08.91-1.86 2.27-1.86a4.79 4.79 0 0 1 1.31.17c.09 0 .14 0 .14.12v1.18c0 .21 0 .29-.11.29s-.1-.06-.1-.18a1.18 1.18 0 0 0-.26-.65 1.25 1.25 0 0 0-1.07-.48 1 1 0 0 0-1.17 1c0 .45.23.79 1 1.41l.27.21c1.18.92 1.61 1.57 1.61 2.51a2 2 0 0 1-.92 1.71 2.84 2.84 0 0 1-1.56.4 3.41 3.41 0 0 1-1.44-.26M54.5 75.41v2a2.21 2.21 0 0 0 .11.75c.13.19.51.39 1.29.39a3.16 3.16 0 0 0 2.26-.71 3.11 3.11 0 0 0 .83-2.45 3.33 3.33 0 0 0-.94-2.46 3.9 3.9 0 0 0-2.79-1 2.69 2.69 0 0 0-.64.07.18.18 0 0 0-.12.2v2zm-1.23-1.08v-2.08s-.1-.49-.42-.56a2 2 0 0 0-.38 0c-.11 0-.17 0-.17-.09s.07-.09.22-.09H55.45c1.23 0 2.87 0 3.94 1.12a3.5 3.5 0 0 1 1 2.49 3.92 3.92 0 0 1-1.07 2.74A4.49 4.49 0 0 1 55.91 79c-.72 0-1.6-.12-2.09-.12h-1.24c-.13 0-.2 0-.2-.1s0-.08.16-.08a1.54 1.54 0 0 0 .35 0c.2 0 .25-.26.28-.54s0-1.19 0-2.09zM62.1 74.33v-2.08s-.1-.49-.42-.56a2 2 0 0 0-.38 0c-.11 0-.17 0-.17-.09s.07-.09.21-.09h3.88l.42-.06a1 1 0 0 1 .16 0s.06 0 .06.09a6.15 6.15 0 0 0-.08.64v.65s0 .11-.1.11-.09 0-.09-.14a1.05 1.05 0 0 0-.06-.35c-.07-.18-.17-.29-.66-.35h-1.4s-.07 0-.07.1v2.49c0 .07 0 .11.07.11h1.57a.69.69 0 0 0 .47-.15c.07-.08.1-.13.16-.13s.07 0 .07.08 0 .21-.08.72v.66s0 .19-.09.19a.08.08 0 0 1-.09-.09 3.07 3.07 0 0 0 0-.35c0-.2-.19-.34-.55-.38h-1.4s-.06 0-.06.1v2.3c0 .68.18.83 1.18.83a2.46 2.46 0 0 0 .92-.12c.26-.12.37-.32.44-.73 0-.11 0-.15.11-.15s.08.08.08.18a8.1 8.1 0 0 1-.29.92c-.07.26-.16.26-.53.26-1.48 0-2.14-.06-2.72-.06h-1.24c-.13 0-.19 0-.19-.1s0-.08.16-.08a1.53 1.53 0 0 0 .35 0c.2 0 .25-.26.28-.54s.05-1.19.05-2.09zM68.79 77.57c0 .77.15 1 .34 1.09a1.58 1.58 0 0 0 .51.07c.11 0 .17 0 .17.08s-.09.1-.23.1H67.3c-.13 0-.22 0-.22-.1s.06-.08.16-.08a1.66 1.66 0 0 0 .44-.05c.26-.08.29-.36.31-1.22l.09-5.82c0-.19 0-.33.13-.33s.2.13.37.3 1.61 1.73 3 3.15c.67.67 2 2.08 2.16 2.24l-.1-4.41c0-.6-.1-.79-.33-.89a1.62 1.62 0 0 0-.52-.06c-.12 0-.16 0-.16-.09s.11-.09.25-.09h2.19c.13 0 .22 0 .22.09s-.06.09-.17.09a1.11 1.11 0 0 0-.3 0c-.27.08-.35.28-.36.84l-.11 6.2c0 .22 0 .3-.13.3s-.23-.11-.33-.22c-.62-.59-1.88-1.88-2.9-2.89s-2.08-2.24-2.28-2.43zM36.28 59.17a15.85 15.85 0 0 0-2.4.12 1.27 1.27 0 0 0 .06-.36 1.37 1.37 0 0 0-.06-.35c1 0 1.93.06 2.89.06s1.93 0 2.89-.06a1.16 1.16 0 0 0-.06.36 1.06 1.06 0 0 0 .06.34c-.63-.08-1.63-.1-2.4-.12h-1"/>
                </g>
            </g>
        </g>
    </symbol>

    <symbol id="marsden-logo-mobile" viewBox="0 0 150.27 192.94">
        <defs>
            <clipPath id="clip-path"><path style="fill: none;" d="M.09 123.04h131.05v69.9H.09z"/></clipPath>
        </defs>
        <g id="Layer_2" data-name="Layer 2">
            <g id="Layer_1-2" data-name="Layer 1">
                <g id="Layer_2-2" data-name="Layer 2">
                    <g id="Layer_1-2-2" data-name="Layer 1-2">
                        <path style="fill: #fff;" d="M150.26 25.58l-5 3.61C128.65 41 105.84 54.78 89.43 55c6.3-17.8-4.18-52.86-41.1-54.93C25.14-1.24.41 17 0 47.38-.7 99.67 75.92 120 145.27 77.22l5-3.2z"/>
                        <path d="M16.06 54.94A3.87 3.87 0 0 0 18.65 56a1.78 1.78 0 0 0 2-1.55v-.16c0-2.49-4.95-1.85-4.95-4.92a2.85 2.85 0 0 1 3-2.65h.06a3.85 3.85 0 0 1 2.65 1l-.48.81a3.38 3.38 0 0 0-2.17-.84 1.89 1.89 0 0 0-2.09 1.67c0 2.35 4.95 1.67 4.95 4.92A2.73 2.73 0 0 1 18.88 57h-.22a4.37 4.37 0 0 1-3.14-1.26zM40.64 46.73A5 5 0 0 1 44.21 48l-.52.72a4.67 4.67 0 0 0-3-1.1 4 4 0 0 0-4 4v.13A4.08 4.08 0 0 0 40.57 56h.13a4.64 4.64 0 0 0 3.21-1.32l.56.69a5.29 5.29 0 0 1-3.79 1.53 5 5 0 0 1-5-5v-.17a4.91 4.91 0 0 1 4.79-5zM47.19 46.9h1v9.87h-1zM51.09 46.9h5.58v.87h-4.61v3.6h3.76v.87h-3.76v3.66h4.86v.87h-5.83zM62.43 47.77h-3.57v-.87H67v.87h-3.6v9h-1zM72.42 52.53l-3.34-5.63h1.11l2.1 3.58c.3.51.61 1.18.61 1.18s.3-.66.61-1.18l2.1-3.58h1.1l-3.31 5.63v4.24h-1zM28.76 46.75a5 5 0 0 1 5 5 5 5 0 1 1-5.09-5zm0 9.31a4.12 4.12 0 0 0 4-4.24 4 4 0 0 0-8.06 0 4.11 4.11 0 0 0 3.95 4.27zM29 27.81a5 5 0 1 1-.09 0zm0 9.31a4.12 4.12 0 0 0 4-4.24 4 4 0 1 0-8.06 0 4.11 4.11 0 0 0 3.95 4.27zM38.25 33.61L34.91 28H36l2.1 3.58c.3.51.61 1.18.61 1.18s.3-.66.61-1.18L41.46 28h1.1l-3.33 5.63v4.24h-1zM48.71 34.7h-4l-1.13 3.15h-1L46.2 28h1l3.64 9.88h-1zm-2-5.7s-.21.81-.38 1.28L45 33.86h3.41l-1.3-3.58c-.17-.46-.38-1.28-.38-1.28zM53.31 28h1v9h4.59v.87h-5.59zM18.53 66.92h-3v-1.45h7.78v1.45h-3v7.81h-1.78zM25.7 65.47h5.56v1.45h-3.87v2.42h3.12v1.45h-3.12v2.49h4.08v1.45H25.7zM42.78 72.35h-3.26l-.78 2.37H37l3.27-9.25H42l3.27 9.25h-1.71zm-1.63-5.28s-.21.91-.39 1.43l-.83 2.5h2.43l-.82-2.48c-.17-.52-.37-1.43-.37-1.43zM98.41 65.32a5.07 5.07 0 0 1 3.45 1.17l-.86 1.25a4 4 0 0 0-2.47-.89A3 3 0 0 0 95.36 70a3.1 3.1 0 0 0 2.88 3.3h.23a3.5 3.5 0 0 0 2.33-1v-1h-1.43v-1.45h2.94v4.87h-1.44v-.83a3.94 3.94 0 0 1-2.69 1 4.56 4.56 0 0 1-4.56-4.56v-.24a4.67 4.67 0 0 1 4.57-4.77zM104.63 65.47h1.69v9.25h-1.69zM47.4 65.47H51a2.84 2.84 0 0 1 3 3 2.87 2.87 0 0 1-2.73 3H49.1v3.19h-1.7zm3.27 4.6a1.46 1.46 0 0 0 1.56-1.59 1.44 1.44 0 0 0-1.31-1.56h-1.83v3.15zM64.84 65.47h3a4.33 4.33 0 0 1 1.87.26 2.61 2.61 0 0 1 1.52 2.53 2.66 2.66 0 0 1-1.57 2.53 2.27 2.27 0 0 1 .31.46l1.91 3.45H70l-1.84-3.45h-1.63v3.45h-1.69zM68 69.81a1.34 1.34 0 0 0 1.46-1.46c0-.89-.38-1.43-1.7-1.43h-1.23v2.89zM79.35 72.35h-3.26l-.78 2.37h-1.74l3.27-9.25h1.76l3.27 9.25h-1.74zm-1.63-5.28s-.21.91-.39 1.43L76.5 71h2.43l-.82-2.48c-.17-.52-.37-1.43-.37-1.43zM83.91 65.47h1.69l3.52 5.34a14 14 0 0 1 .77 1.43s-.09-.89-.09-1.43v-5.34h1.67v9.25h-1.65l-3.52-5.33a14 14 0 0 1-.77-1.39s.09.89.09 1.43v5.33h-1.71zM60.3 72.35H57l-.78 2.37h-1.7l3.27-9.25h1.77l3.27 9.25h-1.74zm-1.63-5.28s-.21.91-.39 1.43l-.83 2.5h2.43l-.82-2.48c-.17-.52-.37-1.43-.37-1.43zM56.5 63.1h4.34v.68H56.5z"/>
                        <path d="M28.44 41.7a10.29 10.29 0 0 1-7-4.77l-1.84-3.39.26-.09a2.72 2.72 0 0 0 1.87-2.67 2.63 2.63 0 0 0-1.49-2.54 4.41 4.41 0 0 0-1.83-.24h-2.93v9.87h1v-4.18h2.2l2 3.66a9.08 9.08 0 0 0 7.79 4.46h.59a3.17 3.17 0 0 0-.62-.11zm-12-8.88v-4h2a2.85 2.85 0 0 1 1.41.24 1.83 1.83 0 0 1 .9 1.73 1.85 1.85 0 0 1-1.69 2h-.31z"/>
                    </g>
                </g>
                <path style="fill: #ee7623;" d="M0 110.82h131.14v.75H0z"/>
                <path style="fill: #414042;" d="M.17 159.68h130.97v33.26H.17z"/>
                <path style="fill: #414042;" d="M8.99 159.68h113.42v28.51H8.99z"/>
                <path style="fill: #ee7623;" d="M.17 123.09h130.97v36.67H.17z"/>
                <g style="clip-path:url(#clip-path);">
                    <path style="fill: #fff;" d="M12.28 142.73c0-.21.11-.33.21-.33s.18.06.34.39l3.45 7.12 3.44-7.21c.09-.2.17-.3.28-.3s.19.13.23.39l1.15 7.81c.11.79.24 1.16.62 1.28a2.53 2.53 0 0 0 .78.13c.11 0 .2 0 .2.09s-.15.14-.33.14-2.06 0-2.56-.08c-.29 0-.37-.06-.37-.14s.05-.1.14-.14.12-.19.07-.54l-.76-5.56h-.05l-2.75 5.73c-.29.59-.35.71-.47.71s-.24-.25-.44-.63c-.3-.58-1.3-2.51-1.45-2.87s-.87-1.86-1.31-2.8h-.05l-.66 5a4.86 4.86 0 0 0 0 .59c0 .24.16.35.38.4a2.45 2.45 0 0 0 .53.06c.1 0 .19 0 .19.09s-.11.14-.3.14h-2.58c-.12 0-.23 0-.23-.14s.08-.09.2-.09a1.66 1.66 0 0 0 .38 0c.35-.08.45-.57.52-1zM29.44 148.3c.06 0 .07 0 .06-.08l-1.13-3.12c0-.05 0-.11-.07-.11s-.06.06-.08.11l-1.16 3.11c0 .05 0 .09.05.09zm-2.58.63c-.07 0-.09 0-.11.1l-.68 1.81a2.47 2.47 0 0 0-.19.77c0 .23.11.39.5.39h.19c.15 0 .19 0 .19.1s-.07.13-.21.13h-2.83c-.16 0-.24 0-.24-.13s.05-.1.15-.1h.39c.58-.08.82-.51 1.07-1.14l3.17-7.93c.15-.36.23-.5.35-.5s.19.11.32.4c.3.7 2.32 5.85 3.13 7.77.48 1.14.85 1.31 1.11 1.38a2.64 2.64 0 0 0 .53.05c.1 0 .16 0 .16.1s-.11.13-.58.13h-2.39c-.22 0-.38 0-.38-.1s.05-.1.18-.11a.21.21 0 0 0 .11-.29l-1-2.68a.12.12 0 0 0-.13-.09zM52.72 147.73v2.55a2.72 2.72 0 0 0 .13 1c.17.24.66.51 1.66.51a4.06 4.06 0 0 0 2.9-.91 4 4 0 0 0 1.06-3.15 4.3 4.3 0 0 0-1.21-3.16 5 5 0 0 0-3.59-1.26 3.4 3.4 0 0 0-.82.09.23.23 0 0 0-.15.25v2.53zm-1.58-1.39v-2.68s-.12-.63-.54-.72a2.55 2.55 0 0 0-.49 0c-.14 0-.22 0-.22-.11s.09-.11.28-.11h3.77c1.58 0 3.69 0 5.07 1.44a4.51 4.51 0 0 1 1.22 3.21 5 5 0 0 1-1.38 3.52 5.76 5.76 0 0 1-4.23 1.49c-.92 0-2.06-.15-2.69-.15h-1.59c-.16 0-.25 0-.25-.13s0-.1.2-.1a2 2 0 0 0 .45-.05c.25 0 .31-.33.37-.69.06-.53.06-1.53.06-2.69zM61.8 146.35v-2.68s-.12-.63-.54-.72a2.52 2.52 0 0 0-.49 0c-.14 0-.21 0-.21-.11s.09-.11.28-.11h4.98a5.38 5.38 0 0 0 .54-.08 1.22 1.22 0 0 1 .2-.05c.06 0 .08.05.08.11s-.06.24-.11.82c0 .13 0 .68-.06.83s0 .14-.12.14-.11-.06-.11-.18a1.36 1.36 0 0 0-.08-.46c-.09-.23-.21-.38-.85-.45h-1.79c-.07 0-.09 0-.09.13v3.19c0 .09 0 .14.09.14h2a.87.87 0 0 0 .6-.19c.09-.1.14-.16.2-.16s.09 0 .09.1a8.73 8.73 0 0 0-.1.92c0 .25-.05.76-.05.85s0 .24-.12.24a.1.1 0 0 1-.11-.11 3.14 3.14 0 0 0 0-.45c-.06-.25-.24-.44-.71-.49h-1.79c-.06 0-.08 0-.08.12v3c0 .87.23 1.06 1.52 1.06a3.19 3.19 0 0 0 1.19-.15c.33-.15.48-.42.57-.93 0-.14.05-.19.14-.19s.1.1.1.23a10.11 10.11 0 0 1-.16 1.4c-.09.33-.2.33-.68.33-1.9 0-2.75-.08-3.5-.08h-1.59c-.17 0-.26 0-.26-.13s.05-.1.2-.1a1.94 1.94 0 0 0 .45-.05c.25 0 .32-.33.37-.69.06-.53.06-1.53.06-2.69zM70.22 150.51c0 1 .19 1.31.44 1.4a2 2 0 0 0 .66.09c.14 0 .21 0 .21.1s-.11.13-.29.13h-2.93c-.16 0-.28 0-.28-.13s.08-.1.2-.1a2.2 2.2 0 0 0 .57-.06c.33-.1.38-.47.39-1.57l.11-7.48c0-.25 0-.43.16-.43s.25.16.47.39 2.07 2.22 3.92 4.05c.86.86 2.56 2.68 2.78 2.88h.06l-.13-5.67c0-.77-.13-1-.43-1.14a2 2 0 0 0-.67-.08c-.15 0-.2 0-.2-.11s.14-.11.33-.11h2.77c.16 0 .29 0 .29.11s-.08.11-.23.11a1.35 1.35 0 0 0-.38 0c-.36.1-.46.37-.47 1.07l-.14 8c0 .28 0 .39-.17.39s-.29-.14-.43-.28c-.8-.76-2.41-2.41-3.73-3.71s-2.78-2.94-3-3.18zM85.91 148.57c0 1.21 0 2.16.07 2.69 0 .37.11.64.49.69a5.19 5.19 0 0 0 .63.05c.16 0 .22 0 .22.1s-.09.13-.28.13h-3.52c-.18 0-.27 0-.27-.13s.05-.1.19-.1a2.05 2.05 0 0 0 .46-.05c.25 0 .32-.33.37-.69.06-.53.06-1.48.06-2.69v-2.22-2.68s-.13-.63-.54-.72a2.54 2.54 0 0 0-.49 0c-.13 0-.21 0-.21-.1s.1-.12.29-.12h5.15a2.59 2.59 0 0 0 .52-.05.86.86 0 0 1 .21-.08.1.1 0 0 1 .09.11c0 .09-.06.24-.1.57 0 .13 0 .87-.06 1s0 .17-.13.17-.11-.06-.12-.2a1.21 1.21 0 0 0-.08-.48.9.9 0 0 0-.83-.38h-1.95c-.07 0-.11 0-.11.18v3.16c0 .08 0 .11.09.11h2.18a.66.66 0 0 0 .54-.23c.06-.07.09-.12.16-.12s.08 0 .08.11-.06.39-.1.78-.05.83-.05.92 0 .24-.13.24-.1-.09-.1-.18a1.28 1.28 0 0 0-.07-.39.73.73 0 0 0-.64-.45h-1.87c-.06 0-.09 0-.09.11zM91.55 146.35v-2.68s-.13-.63-.54-.72a2.53 2.53 0 0 0-.49 0c-.14 0-.21 0-.21-.11s.09-.11.28-.11H93.99c.19 0 .28 0 .28.11s-.08.11-.2.11a1.83 1.83 0 0 0-.37 0c-.34.06-.44.28-.47.72s0 .76 0 2.68v1.77c0 1.83.36 2.6 1 3.11a2.33 2.33 0 0 0 1.58.52 2.48 2.48 0 0 0 1.75-.68c.69-.69.73-1.83.73-3.13v-1.58-2.68s-.12-.63-.54-.72a2.37 2.37 0 0 0-.45 0c-.14 0-.21 0-.21-.11s.09-.11.26-.11H100.24c.17 0 .26 0 .26.11s-.08.11-.23.11a1.84 1.84 0 0 0-.37 0c-.34.06-.44.28-.47.72s0 .76 0 2.68v1.35c0 1.4-.14 2.89-1.2 3.8a3.78 3.78 0 0 1-2.63.91 4.07 4.07 0 0 1-2.8-.87c-.64-.58-1.12-1.52-1.12-3.35zM102.82 150.51c0 1 .19 1.31.44 1.4a2 2 0 0 0 .66.09c.14 0 .21 0 .21.1s-.11.13-.29.13H100.9c-.16 0-.28 0-.28-.13s.08-.1.2-.1a2.17 2.17 0 0 0 .57-.06c.33-.1.38-.47.39-1.57l.11-7.48c0-.25 0-.43.16-.43s.25.16.47.39 2.07 2.22 3.91 4.05c.86.86 2.56 2.68 2.78 2.88h.06l-.12-5.67c0-.77-.13-1-.43-1.14a2 2 0 0 0-.67-.08c-.15 0-.2 0-.2-.11s.14-.11.33-.11h2.77c.16 0 .29 0 .29.11s-.08.11-.23.11a1.35 1.35 0 0 0-.38 0c-.35.1-.46.37-.47 1.07l-.14 8c0 .28 0 .39-.16.39s-.29-.14-.43-.28c-.79-.76-2.42-2.41-3.73-3.71s-2.78-2.94-3-3.18zM115 147.73v2.55a2.77 2.77 0 0 0 .14 1c.16.24.66.51 1.66.51a4.06 4.06 0 0 0 2.9-.91 4 4 0 0 0 1.06-3.15 4.28 4.28 0 0 0-1.21-3.16 5 5 0 0 0-3.59-1.26 3.35 3.35 0 0 0-.82.09.23.23 0 0 0-.15.25v2.53zm-1.58-1.39v-2.68s-.13-.63-.54-.72a2.51 2.51 0 0 0-.49 0c-.14 0-.21 0-.21-.11s.09-.11.28-.11h3.76c1.58 0 3.69 0 5.07 1.44a4.51 4.51 0 0 1 1.22 3.21 5 5 0 0 1-1.38 3.52 5.76 5.76 0 0 1-4.23 1.49c-.92 0-2.06-.15-2.69-.15h-1.59c-.16 0-.25 0-.25-.13s.05-.1.2-.1a1.94 1.94 0 0 0 .45-.05c.25 0 .32-.33.37-.69.06-.53.06-1.53.06-2.69zM39.1 147.51a1.26 1.26 0 0 1-.9.21 3.29 3.29 0 0 1-1-.13c-.09 0-.11-.09-.11-.23v-3.84c0-.1 0-.15.11-.18a2.8 2.8 0 0 1 .67-.05 2 2 0 0 1 1.93 2.31 2.22 2.22 0 0 1-.74 1.89m7.19-.93l-.35-.26c-1-.8-1.34-1.24-1.34-1.82a1.33 1.33 0 0 1 1.5-1.3 1.6 1.6 0 0 1 1.38.62 1.51 1.51 0 0 1 .33.83c0 .15 0 .23.12.23s.14-.1.14-.38c0-1 .05-1.35.05-1.51s-.06-.13-.18-.15a6.14 6.14 0 0 0-1.68-.21c-1.75 0-2.92 1-2.92 2.39a3.4 3.4 0 0 0 1.87 3c1.07.71 2.42 1.43 2.6 2.65.22 1.47-1.17 2.14-2.18 2.21-1.87.12-4.07-1-6-5a3.54 3.54 0 0 0 1.74-2.86 2.18 2.18 0 0 0-.86-1.73 4 4 0 0 0-2.32-.54h-3.51c-.19 0-.28 0-.28.11s.08.11.21.11a2.53 2.53 0 0 1 .49 0c.42.09.52.29.54.72s0 .76 0 2.68v2.22c0 1.16 0 2.16-.06 2.69-.05.36-.11.64-.37.69a2 2 0 0 1-.45.05c-.15 0-.2 0-.2.1s.09.13.25.13h3.39c.16 0 .25 0 .25-.13s-.05-.1-.15-.1a5.72 5.72 0 0 1-.62-.05c-.38-.05-.45-.33-.49-.69-.06-.53-.06-1.53-.06-2.7v-.18c0-.08 0-.1.1-.1h1.1a.26.26 0 0 1 .23.09c.16.19.59 1.17 1.06 1.89 2.92 4.44 7 3.4 8.18 2.62a3.08 3.08 0 0 0 1.34-3.06c-.18-1.34-1.34-2.12-2.85-3.29M12.15 168.14h-1.37c-.53 0-.75.07-.89.27a1.07 1.07 0 0 0-.16.32c0 .07 0 .11-.1.11s-.08 0-.08-.15.17-1 .19-1.05.06-.18.11-.18a2.09 2.09 0 0 0 .39.11h4.55a4.06 4.06 0 0 0 .88-.09c.06 0 .07.05.07.19v1.06s0 .15-.08.15-.09 0-.1-.18v-.1c0-.24-.27-.49-1.08-.51h-1.15v5.75s.08.46.36.49a3.54 3.54 0 0 0 .47 0c.1 0 .14 0 .14.07s-.07.09-.17.09h-2.59c-.12 0-.18 0-.18-.09s0-.07.15-.07a1.35 1.35 0 0 0 .33 0c.19 0 .24-.24.27-.5s0-1.11 0-2zM17.55 170.28v-1.94s-.09-.46-.39-.52a2 2 0 0 0-.35 0c-.1 0-.16 0-.16-.08s.06-.08.2-.08H20.46l.39-.06a1 1 0 0 1 .15 0s.05 0 .05.08 0 .17-.07.59v.61s0 .1-.09.1-.08 0-.08-.13a1 1 0 0 0-.06-.33c-.07-.17-.16-.28-.61-.33h-1.3s-.07 0-.07.09v2.32c0 .06 0 .1.07.1h1.46s.36 0 .44-.14.1-.12.15-.12.06 0 .06.07 0 .2-.07.67v.61s0 .18-.08.18a.07.07 0 0 1-.09-.08 1.89 1.89 0 0 0 0-.33c0-.18-.17-.32-.51-.36h-1.3s-.06 0-.06.09V173.43c0 .63.17.77 1.1.77a2.37 2.37 0 0 0 .86-.11c.24-.11.35-.3.41-.68 0-.1 0-.14.1-.14s.07.07.07.17a6.84 6.84 0 0 1-.12 1c-.06.24-.14.24-.5.24-1.38 0-2-.05-2.54-.05h-1.16c-.12 0-.18 0-.18-.09s0-.07.15-.07a1.34 1.34 0 0 0 .33 0c.18 0 .23-.24.26-.5s0-1.11 0-2zM26.09 170.28v-1.94s-.09-.46-.39-.52a2 2 0 0 0-.36 0c-.1 0-.16 0-.16-.08s.06-.08.2-.08H28.03a2.21 2.21 0 0 1 1.7.52 1.58 1.58 0 0 1 .46 1.09 2.16 2.16 0 0 1-2.25 2.22h-.19s-.11 0-.11-.08.07-.1.26-.1a1.44 1.44 0 0 0 1.23-1.51 1.76 1.76 0 0 0-.54-1.38 1.36 1.36 0 0 0-.92-.36 1.31 1.31 0 0 0-.36 0s-.07.07-.07.17v5.66s.08.46.35.49a3.41 3.41 0 0 0 .47 0c.1 0 .15 0 .15.07s-.07.09-.17.09h-2.57c-.12 0-.18 0-.18-.09s0-.07.15-.07a1.33 1.33 0 0 0 .33 0c.18 0 .23-.24.27-.5s0-1.11 0-2zM31.56 170.28v-1.94s-.09-.46-.39-.52a2 2 0 0 0-.36 0c-.1 0-.16 0-.16-.08s.06-.08.2-.08H33.32c.14 0 .2 0 .2.08s-.06.08-.15.08a1.46 1.46 0 0 0-.27 0c-.25 0-.32.2-.34.52s0 .55 0 1.94v1.28c0 1.33.27 1.89.71 2.25a1.7 1.7 0 0 0 1.15.38 1.8 1.8 0 0 0 1.27-.5 3.14 3.14 0 0 0 .53-2.27v-1.15-1.94s-.09-.46-.39-.52a1.87 1.87 0 0 0-.33 0c-.1 0-.16 0-.16-.08s.07-.08.19-.08h2.05c.13 0 .19 0 .19.08s-.06.08-.16.08a1.48 1.48 0 0 0-.27 0c-.25 0-.32.2-.34.52s0 .55 0 1.94v1a3.48 3.48 0 0 1-.87 2.76 2.73 2.73 0 0 1-1.91.66 3 3 0 0 1-2-.63 3 3 0 0 1-.81-2.43zM41.2 168.14h-1.36c-.53 0-.75.07-.89.27a1 1 0 0 0-.16.32c0 .07 0 .11-.1.11s-.08 0-.08-.15.17-1 .19-1.05.05-.18.11-.18a2.17 2.17 0 0 0 .39.11h4.55a4 4 0 0 0 .88-.09c.07 0 .08.05.08.19v1.06s0 .15-.09.15-.09 0-.1-.18v-.1c0-.24-.27-.49-1.08-.51h-1.15v5.75s.08.46.36.49a3.52 3.52 0 0 0 .47 0c.1 0 .15 0 .15.07s-.08.09-.18.09H40.6c-.12 0-.19 0-.19-.09s0-.07.15-.07a1.38 1.38 0 0 0 .33 0c.19 0 .24-.24.27-.5s0-1.11 0-2zM46.6 170.28v-1.94s-.09-.46-.39-.52a2 2 0 0 0-.36 0c-.1 0-.16 0-.16-.08s.06-.08.2-.08H49.5l.39-.06a1 1 0 0 1 .15 0s.05 0 .05.08 0 .17-.07.59v.61s0 .1-.09.1-.08 0-.08-.13a1 1 0 0 0-.05-.33c-.06-.17-.16-.28-.62-.33h-1.3s-.07 0-.07.09v2.32c0 .06 0 .1.07.1h1.46s.36 0 .44-.14.1-.12.15-.12.06 0 .06.07 0 .2-.07.67v.61s0 .18-.08.18a.07.07 0 0 1-.08-.08 2.19 2.19 0 0 0 0-.33c0-.18-.17-.32-.51-.36h-1.3s-.06 0-.06.09V173.43c0 .63.16.77 1.1.77a2.37 2.37 0 0 0 .86-.11c.24-.11.35-.3.41-.68 0-.1 0-.14.1-.14s.07.07.07.17a7.37 7.37 0 0 1-.12 1c-.07.24-.15.24-.5.24-1.38 0-2-.05-2.54-.05h-1.15c-.12 0-.18 0-.18-.09s0-.07.15-.07a1.32 1.32 0 0 0 .33 0c.19 0 .23-.24.27-.5s0-1.11 0-2zM55.07 171.7s.06 0 0-.05l-.83-2.26v-.08l-.06.08-.84 2.25v.06zm-1.87.46s-.07 0-.08.07l-.5 1.31a1.73 1.73 0 0 0-.14.56c0 .16.08.28.37.28H53c.11 0 .14 0 .14.07s-.05.09-.16.09H50.9c-.12 0-.17 0-.17-.09s0-.07.11-.07h.29c.42-.06.6-.37.77-.82l2.3-5.75c.11-.26.16-.37.26-.37s.14.08.23.29c.22.5 1.68 4.24 2.27 5.63.35.83.61 1 .81 1a1.87 1.87 0 0 0 .38 0c.07 0 .12 0 .12.07s-.08.09-.42.09h-1.73c-.16 0-.27 0-.27-.07s0-.07.13-.08a.15.15 0 0 0 .08-.21l-.74-1.94a.09.09 0 0 0-.09-.07zM63.31 171c0 .1 0 .14.08.16a2.38 2.38 0 0 0 .7.09.91.91 0 0 0 .65-.16 1.61 1.61 0 0 0 .54-1.37 1.46 1.46 0 0 0-1.4-1.68 2 2 0 0 0-.49 0c-.06 0-.08.06-.08.13zm-1.08-.72v-1.94s-.09-.46-.39-.52a2 2 0 0 0-.36 0c-.1 0-.16 0-.16-.08s.07-.08.2-.08h2.55a2.92 2.92 0 0 1 1.69.4 1.58 1.58 0 0 1 .62 1.26 2.57 2.57 0 0 1-1.21 2.05c.81 1 1.44 1.84 2 2.41a1.82 1.82 0 0 0 1 .62h.26c.07 0 .11 0 .11.07s-.06.09-.17.09h-.87a1.85 1.85 0 0 1-1-.17 4.44 4.44 0 0 1-1.25-1.39c-.36-.5-.78-1.13-.91-1.26a.19.19 0 0 0-.17-.07h-.8s-.07 0-.07.07v2.13s.09.47.36.5h.45c.08 0 .11 0 .11.07s-.07.09-.19.09h-2.47c-.12 0-.18 0-.18-.09s0-.07.15-.07a1.33 1.33 0 0 0 .33 0c.18 0 .23-.24.26-.5s0-1.11 0-2z"/>\
                    <path style="fill: #fff;" d="M72.62 171.7s.06 0 0-.05l-.82-2.26v-.08l-.05.08-.84 2.25v.06zm-1.87.46s-.07 0-.08.07l-.49 1.31a1.73 1.73 0 0 0-.14.56c0 .16.08.28.37.28h.14c.11 0 .14 0 .14.07s-.06.09-.16.09h-2.08c-.12 0-.17 0-.17-.09s0-.07.11-.07h.29c.42-.06.59-.37.77-.82l2.3-5.75c.11-.26.16-.37.25-.37s.14.08.23.29c.22.5 1.68 4.24 2.27 5.63.35.83.61 1 .81 1a1.84 1.84 0 0 0 .38 0c.07 0 .12 0 .12.07s-.08.09-.42.09h-1.73c-.17 0-.27 0-.27-.07s0-.07.13-.08a.15.15 0 0 0 .08-.21l-.73-1.94a.09.09 0 0 0-.09-.07zM77.86 173.31c0 .72.14 1 .32 1a1.52 1.52 0 0 0 .48.06c.1 0 .16 0 .16.07s-.08.09-.21.09H76.47c-.12 0-.2 0-.2-.09s.06-.07.15-.07a1.59 1.59 0 0 0 .41 0c.24-.07.28-.34.29-1.14l.08-5.42c0-.18 0-.31.12-.31s.18.12.34.29 1.5 1.61 2.84 2.94c.62.62 1.86 1.94 2 2.09l-.09-4.11c0-.56-.09-.73-.31-.83a1.5 1.5 0 0 0-.49-.05c-.11 0-.15 0-.15-.08s.1-.08.24-.08H83.71c.12 0 .21 0 .21.08s-.06.08-.17.08a1 1 0 0 0-.27 0c-.26.07-.33.27-.34.78l-.1 5.78c0 .2 0 .29-.12.29s-.21-.1-.31-.2c-.58-.55-1.75-1.75-2.7-2.69s-2-2.13-2.18-2.31zM91.29 173.94c0 .25 0 .27-.12.33a5.19 5.19 0 0 1-2.21.41c-2.24 0-4.23-1.06-4.23-3.59a3.42 3.42 0 0 1 1.59-3 4.44 4.44 0 0 1 2.46-.6 11.12 11.12 0 0 1 1.62.15 5.75 5.75 0 0 0 .72.1c.11 0 .13 0 .13.11a12.72 12.72 0 0 0-.06 1.5c0 .15 0 .19-.1.19s-.09 0-.09-.12a1.29 1.29 0 0 0-.31-.76 2.94 2.94 0 0 0-2-.72 2.64 2.64 0 0 0-1.81.57 2.73 2.73 0 0 0-.84 2.24 3.18 3.18 0 0 0 3.19 3.44 2 2 0 0 0 .78-.1.33.33 0 0 0 .18-.34v-.86-1.08s-.09-.46-.39-.52a2.13 2.13 0 0 0-.36 0c-.08 0-.14 0-.14-.07s.06-.09.19-.09H91.89c.12 0 .19 0 .19.09s-.06.07-.12.07h-.25c-.25 0-.34.2-.34.52v1.1zM96.3 171.7s.05 0 0-.05l-.82-2.26v-.08l-.05.08-.84 2.25v.06zm-1.87.46s-.07 0-.08.07l-.49 1.31a1.76 1.76 0 0 0-.14.56c0 .16.09.28.37.28h.14c.11 0 .14 0 .14.07s-.05.09-.15.09h-2.08c-.12 0-.17 0-.17-.09s0-.07.11-.07h.28c.42-.06.6-.37.78-.82l2.3-5.75c.11-.26.16-.37.26-.37s.14.08.23.29c.22.5 1.69 4.24 2.27 5.63.35.83.61 1 .8 1a1.86 1.86 0 0 0 .39 0c.07 0 .12 0 .12.07s-.08.09-.42.09h-1.73c-.16 0-.27 0-.27-.07s0-.07.13-.08a.15.15 0 0 0 .08-.21l-.73-1.94a.09.09 0 0 0-.09-.07zM105.58 170.54s.05 0 .05-.07v-.19-1.94s-.09-.46-.39-.52a1.83 1.83 0 0 0-.35 0c-.1 0-.16 0-.16-.08s.06-.08.19-.08H107.39c.13 0 .19 0 .19.08s-.05.08-.16.08h-.26c-.25 0-.32.2-.34.52s0 .55 0 1.94V173.89s.08.46.36.49a3.62 3.62 0 0 0 .47 0c.1 0 .15 0 .15.07s-.07.09-.18.09h-2.58c-.12 0-.19 0-.19-.09s0-.07.14-.07a1.43 1.43 0 0 0 .33 0c.18 0 .23-.24.26-.5s0-1.11 0-2v-.8a.05.05 0 0 0-.05-.06h-3.5s-.05 0-.05.06v2.8s.08.46.36.49a3.57 3.57 0 0 0 .47 0c.1 0 .14 0 .14.07s-.07.09-.18.09h-2.58c-.12 0-.19 0-.19-.09s0-.07.15-.07a1.44 1.44 0 0 0 .33 0c.18 0 .23-.24.26-.5s0-1.11 0-2v-1.61-1.94s-.09-.46-.39-.52a1.85 1.85 0 0 0-.36 0c-.1 0-.15 0-.15-.08s.07-.08.19-.08h2.48c.13 0 .19 0 .19.08s-.06.08-.16.08h-.27c-.25 0-.32.2-.34.52s0 .55 0 1.94v.19s0 .07.05.07zM112.57 171.7s.06 0 0-.05l-.83-2.26v-.08l-.05.08-.84 2.25v.06zm-1.87.46s-.06 0-.08.07l-.5 1.31a1.83 1.83 0 0 0-.13.56c0 .16.08.28.37.28h.14c.11 0 .14 0 .14.07s-.05.09-.16.09h-2.08c-.12 0-.18 0-.18-.09s0-.07.11-.07h.28c.42-.06.6-.37.78-.82l2.3-5.75c.11-.26.17-.37.26-.37s.13.08.23.29c.22.5 1.69 4.24 2.27 5.63.34.83.61 1 .81 1a1.87 1.87 0 0 0 .38 0c.07 0 .12 0 .12.07s-.08.09-.42.09h-1.73c-.16 0-.27 0-.27-.07s0-.07.13-.08a.15.15 0 0 0 .08-.21l-.73-1.94a.09.09 0 0 0-.09-.07zM116.07 170.28v-1.94s-.09-.46-.39-.52a2 2 0 0 0-.36 0c-.1 0-.15 0-.15-.08s.06-.08.2-.08H117.84c.14 0 .2 0 .2.08s-.06.08-.15.08a1.44 1.44 0 0 0-.26 0c-.25 0-.32.2-.34.52s0 .55 0 1.94v1.28c0 1.33.27 1.89.72 2.25a1.69 1.69 0 0 0 1.15.38 1.79 1.79 0 0 0 1.26-.5 3.15 3.15 0 0 0 .53-2.27v-1.15-1.94s-.09-.46-.4-.52a1.86 1.86 0 0 0-.33 0c-.11 0-.16 0-.16-.08s.07-.08.19-.08h2.05c.13 0 .19 0 .19.08s-.05.08-.16.08a1.48 1.48 0 0 0-.27 0c-.25 0-.32.2-.34.52s0 .55 0 1.94v1a3.47 3.47 0 0 1-.87 2.76 2.73 2.73 0 0 1-1.91.66 3 3 0 0 1-2-.63 3 3 0 0 1-.82-2.43zM13.16 181.91s.05 0 0-.06l-.82-2.26v-.08l-.05.08-.84 2.25v.07zm-1.87.46s-.06 0-.08.07l-.5 1.31a1.81 1.81 0 0 0-.14.56c0 .16.08.28.37.28h.14c.11 0 .14 0 .14.07s-.06.09-.16.09H8.98c-.12 0-.18 0-.18-.09s0-.07.11-.07h.29c.42-.06.6-.37.78-.83l2.3-5.75c.11-.26.16-.37.26-.37s.14.08.23.29c.22.5 1.68 4.24 2.27 5.63.35.83.61 1 .81 1a1.92 1.92 0 0 0 .38 0c.07 0 .12 0 .12.07s-.08.09-.42.09H14.2c-.17 0-.27 0-.27-.07s0-.07.13-.08a.15.15 0 0 0 .08-.21l-.73-1.94a.09.09 0 0 0-.09-.07zM20.43 177.87c0-.16.08-.24.16-.24s.13 0 .25.28l2.5 5.16 2.49-5.23c.06-.15.12-.22.2-.22s.14.09.17.28l.83 5.66c.08.58.17.85.45.93a1.84 1.84 0 0 0 .57.09c.08 0 .15 0 .15.06s-.11.1-.24.1-1.49 0-1.86-.06c-.21 0-.27 0-.27-.1s0-.07.1-.1.08-.14 0-.4l-.55-4-2 4.16c-.21.43-.26.51-.34.51s-.17-.18-.32-.46-.94-1.82-1.05-2.08-.63-1.35-1-2l-.48 3.64a3.88 3.88 0 0 0 0 .43c0 .17.12.26.27.29a1.68 1.68 0 0 0 .38 0c.07 0 .14 0 .14.06s-.08.1-.22.1H18.85c-.09 0-.17 0-.17-.1s.06-.06.15-.06a1.15 1.15 0 0 0 .28 0c.26-.05.33-.41.38-.72zM32.69 181.91s.05 0 0-.06l-.82-2.26v-.08l-.06.08-.81 2.26v.07zm-1.87.46s-.06 0-.08.07l-.5 1.31a1.82 1.82 0 0 0-.14.56c0 .16.08.28.37.28h.14c.11 0 .14 0 .14.07s-.05.09-.15.09h-2.08c-.12 0-.17 0-.17-.09s0-.07.11-.07h.28c.42-.06.6-.37.78-.83l2.3-5.75c.11-.26.17-.37.26-.37s.14.08.23.29c.22.5 1.69 4.24 2.27 5.63.35.83.61 1 .81 1a1.93 1.93 0 0 0 .38 0c.07 0 .12 0 .12.07s-.08.09-.42.09h-1.73c-.17 0-.27 0-.27-.07s0-.07.13-.08a.15.15 0 0 0 .08-.21l-.68-1.92a.09.09 0 0 0-.09-.07zM38.36 181.22c0 .1 0 .14.08.16a2.37 2.37 0 0 0 .7.09.91.91 0 0 0 .65-.16 1.61 1.61 0 0 0 .54-1.38 1.47 1.47 0 0 0-1.4-1.68 2 2 0 0 0-.49 0c-.06 0-.08.05-.08.13zm-1.08-.72v-1.94s-.09-.46-.4-.52a1.87 1.87 0 0 0-.36 0c-.1 0-.16 0-.16-.08s.06-.08.2-.08h2.55a2.93 2.93 0 0 1 1.69.39 1.59 1.59 0 0 1 .62 1.25 2.57 2.57 0 0 1-1.21 2.05c.81 1 1.45 1.84 2 2.41a1.83 1.83 0 0 0 1 .62h.26c.07 0 .11 0 .11.07s-.07.09-.18.09h-.87a1.84 1.84 0 0 1-1-.18 4.4 4.4 0 0 1-1.25-1.35c-.37-.5-.79-1.13-.91-1.26a.19.19 0 0 0-.17-.06h-.8s-.07 0-.07.07v2.13s.08.47.36.51h.45c.07 0 .11 0 .11.07s-.06.09-.18.09H36.6c-.12 0-.18 0-.18-.09s0-.07.15-.07a1.42 1.42 0 0 0 .33 0c.19 0 .23-.24.26-.51s0-1.11 0-1.95zM44.21 184.65c-.15-.06-.17-.11-.17-.31v-1.2s0-.24.11-.24.09.08.09.16a1.89 1.89 0 0 0 .09.47 1.26 1.26 0 0 0 1.31.93 1.11 1.11 0 0 0 1.23-1c0-.45-.14-.88-.9-1.47l-.42-.33a2.72 2.72 0 0 1-1.36-2.17c0-1 .84-1.73 2.12-1.73a4.47 4.47 0 0 1 1.22.16c.08 0 .13 0 .13.11v1.1c0 .2 0 .27-.1.27s-.09-.06-.09-.16a1.1 1.1 0 0 0-.24-.61 1.16 1.16 0 0 0-1-.45 1 1 0 0 0-1.09.94c0 .42.21.74 1 1.32l.26.19c1.1.85 1.5 1.47 1.5 2.34a1.84 1.84 0 0 1-.86 1.59 2.65 2.65 0 0 1-1.46.38 3.18 3.18 0 0 1-1.34-.24M51 181.5v1.85a2.06 2.06 0 0 0 .1.7c.12.17.48.37 1.2.37a2.94 2.94 0 0 0 2.11-.66 2.89 2.89 0 0 0 .77-2.28 3.11 3.11 0 0 0-.88-2.29 3.63 3.63 0 0 0-2.6-.92 2.51 2.51 0 0 0-.6.06.17.17 0 0 0-.11.19v1.83zm-1.15-1v-1.94s-.09-.46-.39-.52a1.84 1.84 0 0 0-.35 0c-.1 0-.16 0-.16-.08s.07-.08.2-.08h2.73c1.14 0 2.67 0 3.67 1a3.27 3.27 0 0 1 .89 2.33 3.65 3.65 0 0 1-1 2.56 4.18 4.18 0 0 1-3.07 1.08c-.67 0-1.49-.11-2-.11h-1.15c-.12 0-.18 0-.18-.09s0-.07.15-.07a1.44 1.44 0 0 0 .33 0c.18 0 .23-.24.26-.51s0-1.11 0-1.95zM58.06 180.49v-1.94s-.09-.46-.4-.52a1.85 1.85 0 0 0-.35 0c-.1 0-.16 0-.16-.08s.06-.08.2-.08H60.96l.4-.05a.91.91 0 0 1 .14 0s.05 0 .05.08a5.73 5.73 0 0 0-.07.6v.6s0 .1-.09.1-.08 0-.08-.13a1 1 0 0 0-.05-.33c-.07-.16-.16-.27-.61-.33h-1.3s-.07 0-.07.09v2.32c0 .06 0 .1.07.1h1.46a.65.65 0 0 0 .44-.14c.06-.07.1-.12.15-.12s.06 0 .06.08 0 .2-.07.67v.61s0 .17-.08.17a.07.07 0 0 1-.08-.08 2.86 2.86 0 0 0 0-.33c0-.18-.17-.32-.51-.36h-1.3s-.06 0-.06.09V183.65c0 .63.17.77 1.1.77a2.3 2.3 0 0 0 .86-.11c.24-.11.35-.3.41-.68 0-.1 0-.14.1-.14s.07.07.07.17a7.55 7.55 0 0 1-.12 1c-.07.24-.15.24-.5.24-1.38 0-2-.06-2.54-.06h-1.16c-.12 0-.18 0-.18-.09s0-.07.15-.07a1.42 1.42 0 0 0 .33 0c.18 0 .23-.24.26-.51s0-1.11 0-1.95zM64.3 183.52c0 .71.14 1 .32 1a1.48 1.48 0 0 0 .48.06c.1 0 .16 0 .16.07s-.08.09-.21.09H62.91c-.12 0-.2 0-.2-.09s.05-.07.14-.07a1.55 1.55 0 0 0 .41 0c.24-.07.27-.34.29-1.14l.08-5.42c0-.18 0-.31.12-.31s.19.12.34.28 1.5 1.61 2.84 2.94c.62.62 1.86 1.94 2 2.09l-.09-4.11c0-.56-.09-.73-.31-.83a1.51 1.51 0 0 0-.48-.05c-.11 0-.15 0-.15-.08s.1-.08.24-.08H70.15c.12 0 .21 0 .21.08s-.05.08-.16.08a1 1 0 0 0-.28 0c-.25.07-.33.27-.34.78l-.1 5.78c0 .2 0 .28-.12.28s-.21-.1-.31-.2c-.58-.55-1.75-1.75-2.71-2.69s-2-2.13-2.18-2.31zM34 166.36a14.77 14.77 0 0 0-2.23.11 1.19 1.19 0 0 0 .05-.33 1.28 1.28 0 0 0-.05-.32c.9 0 1.8.05 2.7.05s1.8 0 2.7-.05a1.08 1.08 0 0 0-.06.34 1 1 0 0 0 .06.32c-.59-.07-1.52-.09-2.24-.11H34"/>
                </g>
            </g>
        </g>
    </symbol>

    <symbol id="hamburger-icon" viewBox="0 0 32 32">
        <path d="M4,10h24c1.104,0,2-0.896,2-2s-0.896-2-2-2H4C2.896,6,2,6.896,2,8S2.896,10,4,10z M28,14H4c-1.104,0-2,0.896-2,2  s0.896,2,2,2h24c1.104,0,2-0.896,2-2S29.104,14,28,14z M28,22H4c-1.104,0-2,0.896-2,2s0.896,2,2,2h24c1.104,0,2-0.896,2-2  S29.104,22,28,22z"/>
    </symbol>

    <symbol id="close-icon"  viewBox="0 0 512 512">
        <path d="M437.5,386.6L306.9,256l130.6-130.6c14.1-14.1,14.1-36.8,0-50.9c-14.1-14.1-36.8-14.1-50.9,0L256,205.1L125.4,74.5  c-14.1-14.1-36.8-14.1-50.9,0c-14.1,14.1-14.1,36.8,0,50.9L205.1,256L74.5,386.6c-14.1,14.1-14.1,36.8,0,50.9  c14.1,14.1,36.8,14.1,50.9,0L256,306.9l130.6,130.6c14.1,14.1,36.8,14.1,50.9,0C451.5,423.4,451.5,400.6,437.5,386.6z"/>
    </symbol>

    <symbol id="search-icon" viewBox="0 0 512 512">
        <path d="M344.5,298c15-23.6,23.8-51.6,23.8-81.7c0-84.1-68.1-152.3-152.1-152.3C132.1,64,64,132.2,64,216.3  c0,84.1,68.1,152.3,152.1,152.3c30.5,0,58.9-9,82.7-24.4l6.9-4.8L414.3,448l33.7-34.3L339.5,305.1L344.5,298z M301.4,131.2  c22.7,22.7,35.2,52.9,35.2,85c0,32.1-12.5,62.3-35.2,85c-22.7,22.7-52.9,35.2-85,35.2c-32.1,0-62.3-12.5-85-35.2  c-22.7-22.7-35.2-52.9-35.2-85c0-32.1,12.5-62.3,35.2-85c22.7-22.7,52.9-35.2,85-35.2C248.5,96,278.7,108.5,301.4,131.2z"/>
    </symbol>

    <symbol id="share-this-icon" viewBox="0 0 64 64">
        <path d="M32,7.173c-13.689,0-24.826,11.137-24.826,24.826c0,13.69,11.137,24.828,24.826,24.828s24.826-11.138,24.826-24.828  C56.826,18.31,45.689,7.173,32,7.173z M25.484,31.956c0,0.25-0.025,0.494-0.061,0.734l10.447,5.115  c0.894-0.94,2.154-1.529,3.554-1.529c2.711,0,4.908,2.197,4.908,4.908s-2.197,4.908-4.908,4.908s-4.908-2.197-4.908-4.908  c0-0.25,0.025-0.494,0.061-0.734L24.13,35.335c-0.894,0.94-2.154,1.529-3.554,1.529c-2.711,0-4.908-2.197-4.908-4.908  s2.197-4.908,4.908-4.908c1.406,0,2.671,0.595,3.566,1.542l10.432-5.059c-0.034-0.234-0.058-0.472-0.058-0.716  c0-2.711,2.197-4.908,4.908-4.908s4.908,2.197,4.908,4.908s-2.197,4.908-4.908,4.908c-1.406,0-2.671-0.595-3.566-1.542L25.426,31.24  C25.461,31.475,25.484,31.712,25.484,31.956z"/>
    </symbol>

    <symbol id="facebook-icon" viewBox="0 0 64 64">
        <path d="M32,7.174C18.311,7.174,7.174,18.311,7.174,32c0,13.689,11.137,24.826,24.826,24.826c13.689,0,24.826-11.137,24.826-24.826  C56.826,18.311,45.689,7.174,32,7.174z M38.174,32.874h-4.039c0,6.453,0,14.398,0,14.398h-5.985c0,0,0-7.868,0-14.398h-2.845v-5.088  h2.845v-3.291c0-2.357,1.12-6.04,6.04-6.04l4.433,0.017v4.939c0,0-2.695,0-3.219,0c-0.524,0-1.268,0.262-1.268,1.386v2.99h4.56  L38.174,32.874z"/>
    </symbol>

    <symbol id="twitter-icon"  viewBox="0 0 64 64">
        <path d="M32,7.174C18.311,7.174,7.174,18.311,7.174,32c0,13.689,11.137,24.826,24.826,24.826c13.689,0,24.826-11.137,24.826-24.826  C56.826,18.311,45.689,7.174,32,7.174z M43.075,26.318c0.011,0.246,0.017,0.494,0.017,0.742c0,7.551-5.747,16.257-16.259,16.257  c-3.227,0-6.231-0.945-8.759-2.567c0.447,0.053,0.902,0.08,1.363,0.08c2.678,0,5.141-0.914,7.097-2.446  c-2.5-0.046-4.611-1.698-5.338-3.969c0.348,0.068,0.707,0.103,1.074,0.103c0.521,0,1.027-0.07,1.506-0.2  c-2.614-0.525-4.583-2.834-4.583-5.602c0-0.024,0-0.049,0.001-0.072c0.77,0.427,1.651,0.685,2.587,0.714  c-1.532-1.023-2.541-2.773-2.541-4.755c0-1.048,0.281-2.03,0.773-2.874c2.817,3.458,7.029,5.732,11.777,5.972  c-0.098-0.419-0.147-0.854-0.147-1.303c0-3.155,2.558-5.714,5.714-5.714c1.643,0,3.128,0.694,4.17,1.804  c1.303-0.256,2.525-0.73,3.63-1.387c-0.428,1.335-1.333,2.454-2.514,3.162c1.157-0.138,2.259-0.444,3.282-0.899  C45.161,24.508,44.191,25.515,43.075,26.318z"/>
    </symbol>

    <!-- next three icons are from this set: https://www.iconfinder.com/iconsets/entypo -->
    <symbol id="phone-icon">
        <path d="M67.317,81.952c-9.284-7.634-15.483-17.054-18.742-22.414l-2.431-4.583c0.85-0.912,7.332-7.853,10.141-11.619  c3.53-4.729-1.588-9-1.588-9S40.296,19.933,37.014,17.076c-3.282-2.861-7.06-1.272-7.06-1.272  c-6.898,4.457-14.049,8.332-14.478,26.968C15.46,60.22,28.705,78.216,43.028,92.148c14.346,15.734,34.043,31.504,53.086,31.486  c18.634-0.425,22.508-7.575,26.965-14.473c0,0,1.59-3.775-1.268-7.06c-2.86-3.284-17.265-17.688-17.265-17.688  s-4.268-5.119-8.998-1.586c-3.525,2.635-9.855,8.496-11.38,9.917C84.171,92.749,73.582,87.104,67.317,81.952z"/>
    </symbol>

    <symbol id="mail-icon">
        <path d="M69.5,64.534l46.415-28.941c-0.505-0.08-1.017-0.132-1.542-0.132H24.627c-0.525,0-1.038,0.054-1.541,0.132L69.5,64.534z"/>
        <path d="M72.421,75.723c-0.062,0.04-0.13,0.066-0.194,0.104c-0.067,0.037-0.139,0.073-0.206,0.107  c-0.365,0.188-0.741,0.339-1.125,0.439c-0.04,0.011-0.078,0.017-0.116,0.025c-0.423,0.099-0.848,0.16-1.274,0.16  c-0.001,0-0.003,0-0.004,0s-0.003,0-0.005,0c-0.426,0-0.852-0.06-1.273-0.16c-0.039-0.009-0.079-0.015-0.118-0.025  c-0.384-0.101-0.757-0.252-1.124-0.439c-0.069-0.034-0.139-0.07-0.207-0.107c-0.065-0.037-0.132-0.063-0.196-0.104L15.005,43.564  c-0.093,0.544-0.153,1.099-0.153,1.671v51.609c0,5.398,4.375,9.774,9.774,9.774h89.746c5.398,0,9.774-4.376,9.774-9.774V45.235  c0-0.572-0.059-1.127-0.154-1.671L72.421,75.723z"/>
    </symbol>

    <symbol id="location-icon">
        <g>
            <path d="M25,0C11.191,0,0,11.194,0,25c0,23.87,25,55,25,55s25-31.13,25-55C50,11.194,38.807,0,25,0z M25,38.8   c-7.457,0-13.5-6.044-13.5-13.5S17.543,11.8,25,11.8c7.455,0,13.5,6.044,13.5,13.5S32.455,38.8,25,38.8z"/>
        </g>
    </symbol>


</svg>
